<svg width="32" height="32" viewBox="0 0 32 32" fill="none" xmlns="http://www.w3.org/2000/svg">
<g id="vuesax/linear/gallery-import">
<g id="gallery-import">
<path id="Vector" d="M11.9987 13.3333C13.4715 13.3333 14.6654 12.1394 14.6654 10.6667C14.6654 9.19391 13.4715 8 11.9987 8C10.5259 8 9.33203 9.19391 9.33203 10.6667C9.33203 12.1394 10.5259 13.3333 11.9987 13.3333Z" stroke="#615C5E" stroke-width="2" stroke-linecap="round" stroke-linejoin="round"/>
<path id="Vector_2" d="M17.3346 2.6665H12.0013C5.33464 2.6665 2.66797 5.33317 2.66797 11.9998V19.9998C2.66797 26.6665 5.33464 29.3332 12.0013 29.3332H20.0013C26.668 29.3332 29.3346 26.6665 29.3346 19.9998V13.3332" stroke="#615C5E" stroke-width="2" stroke-linecap="round" stroke-linejoin="round"/>
<path id="Vector_3" d="M24 2.6665V10.6665L26.6667 7.99984" stroke="#615C5E" stroke-width="2" stroke-linecap="round" stroke-linejoin="round"/>
<path id="Vector_4" d="M23.9987 10.6667L21.332 8" stroke="#615C5E" stroke-width="2" stroke-linecap="round" stroke-linejoin="round"/>
<path id="Vector_5" d="M3.5625 25.2666L10.1358 20.8532C11.1892 20.1466 12.7092 20.2266 13.6558 21.0399L14.0958 21.4266C15.1358 22.3199 16.8158 22.3199 17.8558 21.4266L23.4025 16.6666C24.4425 15.7732 26.1225 15.7732 27.1625 16.6666L29.3358 18.5332" stroke="#615C5E" stroke-width="2" stroke-linecap="round" stroke-linejoin="round"/>
</g>
</g>
</svg>
