<svg width="22" height="23" viewBox="0 0 22 23" fill="none" xmlns="http://www.w3.org/2000/svg">
<g id="bell">
<path id="Vector" d="M16.5 7.8335C16.5 6.37481 15.9205 4.97586 14.8891 3.94441C13.8576 2.91296 12.4587 2.3335 11 2.3335C9.54131 2.3335 8.14236 2.91296 7.11091 3.94441C6.07946 4.97586 5.5 6.37481 5.5 7.8335C5.5 14.2502 2.75 16.0835 2.75 16.0835H19.25C19.25 16.0835 16.5 14.2502 16.5 7.8335Z" stroke="#433E40" stroke-width="2" stroke-linecap="round" stroke-linejoin="round"/>
<path id="Vector_2" d="M12.5857 19.75C12.4246 20.0278 12.1933 20.2584 11.9149 20.4187C11.6366 20.579 11.3211 20.6634 10.9999 20.6634C10.6787 20.6634 10.3632 20.579 10.0849 20.4187C9.80654 20.2584 9.57522 20.0278 9.41406 19.75" stroke="#433E40" stroke-width="2" stroke-linecap="round" stroke-linejoin="round"/>
</g>
</svg>
