<svg width="98" height="110" viewBox="0 0 98 110" fill="none" xmlns="http://www.w3.org/2000/svg">
<g clip-path="url(#clip0_146_510)">
<path d="M49.8792 26.9539C55.1462 27.4339 60.4242 27.1219 65.6952 27.1279C66.9208 27.081 68.1404 27.3221 69.256 27.8318C70.3716 28.3415 71.3523 29.1057 72.1192 30.0629C72.617 30.6074 72.9987 31.2476 73.2411 31.9445C73.4834 32.6414 73.5812 33.3803 73.5286 34.1162C73.4761 34.8521 73.2742 35.5696 72.9352 36.225C72.5963 36.8803 72.1274 37.4597 71.5572 37.9279C70.9884 38.4888 70.3248 38.9445 69.5971 39.2739C67.0321 40.3409 67.5772 42.7939 67.0362 44.7639C65.6362 47.1266 64.2361 49.4892 62.8361 51.8519L62.8101 51.8779C61.9141 52.3685 61.1833 53.1135 60.7102 54.0189C61.6145 54.3229 62.5762 54.4162 63.5221 54.2919C70.7461 54.3069 77.9691 54.2999 85.1931 54.3109C87.2333 54.1538 89.2661 54.6959 90.9571 55.8479C93.7431 58.1639 94.3381 61.1609 93.7641 64.5779C93.7554 64.8937 93.6782 65.2039 93.5377 65.4869C93.3973 65.7699 93.197 66.019 92.9507 66.217C92.7045 66.4149 92.4181 66.5569 92.1115 66.6332C91.8049 66.7095 91.4854 66.7183 91.1751 66.6589C89.9911 66.5689 89.6512 67.0499 89.6562 68.2089C89.6952 77.6589 89.6841 87.1089 89.6721 96.5599C89.6721 97.2599 89.6871 97.8599 90.4721 98.1899C93.8451 99.6199 93.9722 102.605 93.7932 105.58C93.5282 109.901 93.4421 109.922 89.0681 109.924C60.7895 109.935 32.5108 109.94 4.23214 109.937C0.918137 109.937 0.41316 109.261 0.20516 105.91C0.00515978 102.701 0.705158 100.06 3.66616 98.3989C4.52916 97.9139 4.56614 97.1639 4.56014 96.3089C4.53147 87.1556 4.51581 78.0029 4.51314 68.8509C4.51314 67.6749 4.87317 66.4029 2.72317 66.8389C1.77016 67.0329 0.723141 65.8979 0.323141 64.8579C-0.998859 61.4219 1.93315 55.9859 5.63015 54.8579C6.07915 54.8579 6.55913 54.9339 6.86013 54.4579C14.1971 54.0009 21.5411 54.3709 28.8811 54.2369C29.7701 54.2189 30.6592 54.182 31.5462 54.155C31.9076 54.2788 32.2927 54.3169 32.6714 54.2664C33.0501 54.2159 33.4119 54.0781 33.7282 53.8639C32.3282 52.8879 31.7281 51.3929 30.2501 50.8149C28.4891 47.7269 26.5851 44.6599 26.1861 41.0529C26.0251 39.5909 24.9032 39.3839 24.1372 39.0699C20.0522 37.4019 19.6661 30.9219 23.0371 28.4089C24.2441 27.5537 25.7012 27.1238 27.1792 27.1869C32.3872 27.1809 37.5972 27.1209 42.8042 27.1869C44.1732 27.2049 44.7382 26.9869 44.8042 25.4269C45.0122 20.6569 48.0672 17.8539 52.8822 17.8429C62.8548 17.8236 72.8268 17.8209 82.7981 17.8349H85.1251C83.9741 13.8709 84.4251 9.99593 84.5061 6.15593C84.4817 5.32335 84.631 4.49482 84.9443 3.72307C85.2576 2.95132 85.7282 2.25325 86.3261 1.67333C86.924 1.0934 87.6361 0.644316 88.4171 0.354661C89.198 0.0650055 90.0307 -0.0588259 90.8621 -0.00904792C94.9001 0.0569521 96.9621 2.2199 97.3621 6.3159C97.5296 9.0641 97.5386 11.8197 97.3891 14.569C97.3341 17.462 95.9042 19.3359 93.2132 20.5049C90.0145 21.9261 86.5438 22.6309 83.0442 22.5699C73.2981 22.4149 63.5442 22.5069 53.7992 22.5249C52.2672 22.5249 50.5991 22.3339 49.8671 24.2329C48.6861 25.1399 48.3511 26.0449 49.8751 26.9449M25.7431 34.8099L26.3012 35.2219L27.4871 35.3509C28.0356 35.6518 28.6508 35.81 29.2764 35.8111C29.9019 35.8121 30.5177 35.656 31.0672 35.3569H35.5341C36.0161 35.8389 36.6341 35.7399 37.2211 35.7399C44.1492 35.7399 51.0765 35.7399 58.0031 35.7399C58.5911 35.7399 59.2091 35.8289 59.6771 35.3279L67.2321 35.2459C67.9851 36.0459 68.6912 35.702 68.8982 34.892C69.0762 34.192 70.3412 33.1159 68.5832 32.6199C67.0302 30.9989 65.0161 32.0999 63.2531 31.7199C62.6451 31.0959 61.8601 31.308 61.1391 31.306C50.0518 31.2913 38.9638 31.2866 27.8751 31.2919C27.2837 31.246 26.6888 31.2936 26.1121 31.4329C25.6537 31.6042 25.2549 31.9049 24.9639 32.2984C24.673 32.692 24.5026 33.1615 24.4732 33.6499C24.3632 34.4769 24.9641 34.8199 25.7581 34.7959L25.7431 34.8099ZM81.1251 102.784L9.44814 102.777C8.63014 102.777 7.81115 102.777 6.99215 102.784C6.06315 102.795 5.10115 102.832 5.14315 104.13C5.18515 105.475 6.26315 105.077 6.98415 105.077C33.7795 105.077 60.5741 105.061 87.3681 105.03C88.1131 105.03 89.2041 105.345 89.1491 104.02C89.1051 102.963 88.2961 102.789 87.3811 102.798C85.4471 102.822 83.5121 102.798 81.5811 102.787C81.4325 102.543 81.2822 102.543 81.1301 102.787M88.9301 61.7429C88.6831 59.4899 87.0551 59.1069 85.2371 59.0909C79.8845 59.0443 74.5318 59.0196 69.1792 59.017C49.4752 58.993 29.7712 58.9746 10.0672 58.9619C9.91016 58.7329 9.76713 58.7449 9.62313 58.9759C8.33313 59.1129 6.88214 58.7559 5.99514 60.1299C5.68814 60.6069 5.05612 61.0349 5.42312 61.6929C5.73212 62.2459 6.36713 62.0419 6.85213 61.9759C11.0071 61.4099 15.1731 61.9419 19.3321 61.8759C29.4391 61.7129 39.5522 61.9889 49.6632 61.9919C60.1532 61.9919 70.6421 61.8919 81.1331 61.8299L81.5841 61.819C82.7748 61.819 83.9665 61.819 85.1591 61.819L85.7732 62.0269H88.5731C88.7891 62.0559 89.0031 62.0799 88.9271 61.7439M43.5902 53.8009C53.3492 55.0009 60.0442 50.1519 62.8591 42.3009C63.6152 40.195 63.3991 39.8349 61.1591 39.8279C52.2258 39.8039 43.2925 39.7906 34.3591 39.7879C30.5191 39.7879 30.5482 39.7879 31.5152 43.3879C31.7169 44.0921 32.0201 44.7631 32.4151 45.3799C34.802 49.4231 38.6269 52.4166 43.1251 53.7619C43.2801 53.7729 43.4341 53.7849 43.5871 53.7969M9.27913 97.8379C10.0971 97.8769 10.9131 97.9499 11.7291 97.9479C35.1665 97.9299 58.6041 97.9073 82.0421 97.8799C84.9651 97.8799 84.9831 97.8699 84.9901 94.8949C85.0128 86.1169 85.0278 77.3386 85.0351 68.5599C85.0351 68.2929 85.0351 68.0279 85.0351 67.7599C84.6171 65.7759 83.0281 67.0969 82.0451 66.7029C81.1277 66.2811 80.1312 66.059 79.1215 66.0513C78.1118 66.0435 77.1119 66.2503 76.1881 66.6579L62.8012 66.5979C60.7012 65.6379 58.4771 66.2149 56.3211 66.1979C54.3151 66.1829 52.2371 65.6649 50.2841 66.5979H27.0481C23.9608 65.8699 20.7465 65.8699 17.6591 66.5979H11.4032C11.3372 66.1489 11.2122 65.7379 10.6352 65.8039C10.1912 65.8539 10.1201 66.2239 10.0581 66.5809C8.51313 67.2809 9.53614 68.6899 9.19314 69.7209C8.57214 70.2209 8.73714 70.9329 8.73714 71.5809C8.72914 79.7336 8.72914 87.8869 8.73714 96.0409C8.73714 96.6759 8.53217 97.4069 9.27517 97.8349M92.8131 9.0789C92.7321 8.0529 92.7272 7.01194 92.5462 6.00194C92.3932 5.14994 91.7152 4.85292 90.8692 4.92192C90.3372 4.96592 89.7691 4.97493 89.6801 5.65093C89.179 8.48547 89.0372 11.3719 89.2581 14.2419C89.3781 15.2629 90.0762 15.7159 91.1582 15.6479C92.1992 15.5799 92.3442 14.9419 92.2992 14.1339C92.2052 12.4279 93.0841 10.8099 92.8161 9.0789" fill="#232222"/>
<path d="M90.9531 55.847C89.262 54.695 87.2292 54.1529 85.189 54.31C77.965 54.299 70.7421 54.3101 63.5181 54.2921C62.5721 54.4148 61.6107 54.3214 60.7061 54.019C61.1791 53.113 61.9098 52.3674 62.806 51.876C62.859 52.359 62.6691 52.9891 63.4061 53.1021C63.4963 53.1251 63.591 53.1242 63.6808 53.0994C63.7706 53.0747 63.8524 53.0269 63.918 52.9608C63.9837 52.8948 64.031 52.8127 64.0552 52.7228C64.0794 52.6328 64.0796 52.5381 64.056 52.448C63.946 51.705 63.3141 51.907 62.8331 51.848C64.2331 49.484 65.6331 47.121 67.0331 44.759C67.4431 45.777 66.6181 46.551 66.4421 47.459C65.7791 50.885 66.9981 53.05 70.5261 53.138C76.0141 53.274 81.526 53.558 87.011 52.949C87.9111 52.8552 88.8137 53.1003 89.5425 53.6367C90.2714 54.173 90.7739 54.9618 90.952 55.849" fill="#CFCFCF"/>
<path d="M30.2491 50.821C31.7281 51.4 32.3301 52.8941 33.7271 53.8701C33.4106 54.0833 33.049 54.2205 32.6707 54.271C32.2923 54.3215 31.9075 54.2839 31.5461 54.1611C31.2831 52.9811 29.6651 52.328 30.2461 50.821" fill="#CFCFCF"/>
<path d="M49.881 26.954C48.357 26.054 48.691 25.1539 49.873 24.2419C49.873 25.1453 49.8757 26.0493 49.881 26.954Z" fill="#CFCFCF"/>
<path d="M6.85895 54.4649C6.55895 54.9369 6.07991 54.8559 5.62891 54.8589C5.91991 54.3519 6.27595 54.0589 6.85895 54.4649Z" fill="#B06934"/>
<path d="M27.0501 66.6019H62.8061L76.1931 66.663C78.1039 67.2163 80.1303 67.2315 82.0492 66.707C83.0302 67.107 84.6202 65.779 85.0392 67.767C84.9773 67.8129 84.927 67.8727 84.8924 67.9416C84.8578 68.0104 84.8398 68.0864 84.8398 68.1635C84.8398 68.2405 84.8578 68.3165 84.8924 68.3854C84.927 68.4542 84.9773 68.514 85.0392 68.5599C85.0245 77.3379 85.0094 86.1166 84.9941 94.8959C84.9861 97.8709 84.9701 97.878 82.0451 97.881C58.6078 97.907 35.1701 97.9296 11.7321 97.949C10.9161 97.949 10.1002 97.876 9.28415 97.838C9.25482 88.4666 9.22615 79.096 9.19815 69.726C9.54215 68.693 8.51912 67.286 10.0641 66.585L11.4092 66.603H27.0542M80.2541 93.4169C80.2681 86.3579 80.2722 79.3 80.3022 72.241C80.3122 70.202 79.3131 69.2299 77.3141 69.2289C75.9761 69.2289 74.6381 69.2659 73.3011 69.2679C54.8705 69.2679 36.4408 69.2713 18.0121 69.278C16.9291 69.278 15.7372 69.029 14.9792 70.178C14.8394 70.2157 14.7092 70.2827 14.5973 70.3746C14.4854 70.4664 14.3944 70.5811 14.3302 70.7108C14.266 70.8406 14.2301 70.9825 14.2249 71.1271C14.2197 71.2718 14.2454 71.416 14.3001 71.55C14.0581 77.794 14.1372 84.0399 14.2582 90.2859C14.2582 90.4299 14.2691 90.5739 14.2741 90.7159C14.0171 94.6539 14.7362 95.441 18.6982 95.543C19.4412 95.562 20.1852 95.554 20.9272 95.554C38.6078 95.554 56.2885 95.554 73.9691 95.554C75.3021 95.554 76.6351 95.506 77.9691 95.48C79.4561 95.6 80.1091 94.793 80.2531 93.421" fill="#B06934"/>
<path d="M43.1271 53.7621C38.6234 52.4202 34.793 49.4264 32.4031 45.3801C32.0076 44.7635 31.7044 44.0924 31.503 43.3881C30.535 39.7881 30.503 39.7881 34.347 39.7881C43.2804 39.7948 52.2137 39.8088 61.147 39.8301C63.393 39.8371 63.6081 40.1941 62.8531 42.3011C60.0381 50.1471 53.343 55.0011 43.584 53.7961C43.43 53.7861 43.2751 53.7731 43.1221 53.7621" fill="#B06934"/>
<path d="M81.1262 61.827C70.6362 61.885 60.1452 61.994 49.6562 61.989C39.5452 61.989 29.4322 61.709 19.3252 61.873C15.1652 61.941 10.9992 61.407 6.84616 61.973C6.36016 62.039 5.72415 62.2431 5.41715 61.6901C5.04915 61.0321 5.68015 60.604 5.98715 60.127C6.87415 58.753 8.32515 59.112 9.61515 58.973C9.76415 58.973 9.91518 58.963 10.0592 58.958C29.7632 58.976 49.4672 58.9944 69.1712 59.0131C74.5238 59.0191 79.8765 59.0437 85.2292 59.087C87.0492 59.103 88.6741 59.4871 88.9201 61.7371C88.8021 61.8311 88.6841 61.926 88.5681 62.023C87.6348 62.023 86.6998 62.023 85.7632 62.023L85.1512 61.816H81.5761L81.1252 61.827" fill="#B06934"/>
<path d="M81.5771 102.786C83.5111 102.794 85.4471 102.822 87.3771 102.799C88.2921 102.788 89.1011 102.964 89.1451 104.019C89.2001 105.344 88.1071 105.029 87.3641 105.029C60.5687 105.058 33.774 105.074 6.98003 105.076C6.25803 105.076 5.18003 105.476 5.13903 104.129C5.09703 102.829 6.05702 102.796 6.98802 102.783C7.80702 102.773 8.62502 102.783 9.44402 102.783C33.3367 102.783 57.229 102.786 81.121 102.791H81.5721" fill="#B06934"/>
<path d="M63.257 31.7251C65.02 32.1081 67.034 31.0091 68.585 32.6251C69.015 33.9521 67.918 34.4951 67.236 35.2511L59.681 35.3331L35.538 35.3621C34.048 35.3621 32.5587 35.3621 31.07 35.3621H27.492C27.092 35.3181 26.702 35.2751 26.304 35.2331L25.748 34.8211L25.761 34.8021C24.95 33.3301 25.406 32.5171 27.01 32.0761C27.9383 31.8355 28.8952 31.7232 29.854 31.7421C40.9874 31.7421 52.1206 31.7371 63.254 31.7271" fill="#B06934"/>
<path d="M92.8163 9.08797C93.0843 10.819 92.2053 12.437 92.2993 14.143C92.3443 14.951 92.1993 15.5889 91.1583 15.6569C90.0793 15.7249 89.3803 15.2719 89.2583 14.2509C89.0373 11.3809 89.1791 8.49448 89.6803 5.65993C89.7723 4.98393 90.3383 4.97499 90.8693 4.93099C91.7163 4.86199 92.3933 5.15895 92.5463 6.01095C92.7273 7.02095 92.7323 8.06197 92.8133 9.08797" fill="#422C1F"/>
<path d="M63.258 31.7249C52.1247 31.7296 40.9913 31.7346 29.858 31.74C28.8992 31.721 27.9423 31.8333 27.014 32.0739C25.414 32.5149 24.954 33.3279 25.765 34.7999C24.972 34.8229 24.372 34.482 24.482 33.654C24.511 33.166 24.6806 32.697 24.9704 32.3034C25.2602 31.9098 25.6577 31.6085 26.115 31.4359C26.6924 31.297 27.2879 31.249 27.88 31.2939C38.9674 31.2939 50.0553 31.2993 61.144 31.31C61.863 31.31 62.65 31.0989 63.258 31.7249Z" fill="#422C1F"/>
<path d="M9.19523 69.7252C9.22256 79.0965 9.25122 88.4678 9.28122 97.8392C8.53822 97.4112 8.7432 96.6802 8.7432 96.0392C8.73187 87.8865 8.73187 79.7338 8.7432 71.5812C8.7432 70.9332 8.57819 70.2252 9.19919 69.7212" fill="#422C1F"/>
<path d="M35.5371 35.3669L59.6801 35.3379C59.2131 35.8379 58.5941 35.7499 58.0061 35.7499C51.0781 35.7499 44.1508 35.7499 37.2241 35.7499C36.6391 35.7499 36.0181 35.8499 35.5371 35.3689" fill="#422C1F"/>
<path d="M62.8041 66.6011H50.2861C52.2401 65.6721 54.3181 66.1891 56.3231 66.2011C58.4791 66.2161 60.6991 65.6401 62.8031 66.6011" fill="#422C1F"/>
<path d="M82.048 66.7069C80.1286 67.2305 78.102 67.215 76.1909 66.662C77.1147 66.2544 78.1146 66.0476 79.1243 66.0554C80.134 66.0631 81.1305 66.2852 82.048 66.7069Z" fill="#422C1F"/>
<path d="M27.0482 66.602H17.6572C20.7447 65.8748 23.9588 65.8748 27.0463 66.602" fill="#422C1F"/>
<path d="M67.2361 35.251C67.9181 34.495 69.0151 33.951 68.5851 32.623C70.3431 33.123 69.0801 34.199 68.9001 34.897C68.6931 35.707 67.9891 36.046 67.2361 35.251Z" fill="#422C1F"/>
<path d="M27.4922 35.3589C28.6849 35.3589 29.8775 35.3615 31.0702 35.3669C30.5208 35.6651 29.9053 35.8206 29.2802 35.8192C28.655 35.8178 28.0403 35.6595 27.4922 35.3589Z" fill="#422C1F"/>
<path d="M11.4051 66.6021L10.0601 66.5861C10.1211 66.2291 10.1931 65.8591 10.6371 65.8071C11.2121 65.7421 11.3371 66.1531 11.4051 66.6071" fill="#422C1F"/>
<path d="M25.748 34.8188C25.934 34.9558 26.1181 35.0938 26.3041 35.2288L25.748 34.8188Z" fill="#422C1F"/>
<path d="M85.1511 61.8179C85.3511 61.8879 85.5581 61.9569 85.7631 62.0249L85.1511 61.8179Z" fill="#422C1F"/>
<path d="M10.0602 58.9589L9.61621 58.9739C9.75721 58.7429 9.90418 58.7279 10.0602 58.9589Z" fill="#422C1F"/>
<path d="M43.125 53.762C43.279 53.773 43.434 53.786 43.587 53.796C43.433 53.786 43.278 53.774 43.125 53.762Z" fill="#422C1F"/>
<path d="M85.0331 68.5602C84.9719 68.5135 84.9224 68.4533 84.8883 68.3844C84.8542 68.3155 84.8364 68.2396 84.8364 68.1627C84.8364 68.0857 84.8542 68.0099 84.8883 67.9409C84.9224 67.872 84.9719 67.8118 85.0331 67.7651V68.5602Z" fill="#422C1F"/>
<path d="M81.577 102.786H81.126C81.278 102.542 81.4283 102.542 81.577 102.786Z" fill="#422C1F"/>
<path d="M88.5691 62.0228C88.6871 61.9228 88.8031 61.8308 88.9231 61.7368C88.9991 62.0748 88.7861 62.0498 88.5691 62.0228Z" fill="#422C1F"/>
<path d="M62.8331 51.8521C63.3131 51.9071 63.9472 51.707 64.0562 52.452C64.0799 52.5421 64.0797 52.6368 64.0557 52.7268C64.0316 52.8168 63.9844 52.8989 63.9189 52.9651C63.8533 53.0313 63.7716 53.0792 63.6819 53.1041C63.5921 53.129 63.4974 53.13 63.4072 53.1071C62.6702 52.9941 62.8611 52.3641 62.8071 51.8801L62.8331 51.8541" fill="#FFF6D4"/>
<path d="M77.9702 95.476C76.6372 95.5 75.3042 95.5469 73.9702 95.549C56.2895 95.5536 38.6088 95.5536 20.9282 95.549C20.1862 95.549 19.4432 95.5569 18.6992 95.5389C14.7372 95.4389 14.0182 94.649 14.2752 90.712C14.3072 90.665 14.3752 90.6119 14.3652 90.5759C14.3384 90.473 14.3026 90.3726 14.2582 90.2759C14.1372 84.0299 14.0582 77.784 14.2992 71.54C15.0072 71.322 14.9922 70.74 14.9792 70.168C15.7372 69.017 16.9302 69.2679 18.0122 69.2679C36.4415 69.2566 54.8712 69.2533 73.3012 69.2579C74.6372 69.2579 75.9752 69.2209 77.3142 69.2209C79.3142 69.2209 80.3142 70.192 80.3022 72.233C80.2712 79.29 80.2682 86.349 80.2542 93.408C79.0112 93.56 78.6092 94.646 77.9702 95.468M68.1612 90.5569C70.0192 90.5859 71.8882 90.4989 73.7312 90.6769C75.3572 90.8349 75.5802 90.087 75.5462 88.743C75.4772 85.917 75.5222 83.0889 75.5222 80.2609C75.5222 73.4609 75.5222 73.461 68.6142 74.22C68.4036 74.1475 68.1856 74.0985 67.9642 74.074C52.1242 74.05 36.2835 74.0253 20.4422 73.9999C19.1572 73.9999 19.0182 74.6369 19.0272 75.6769C19.0622 79.9899 19.1172 84.3069 18.9982 88.6169C18.9512 90.2849 19.4052 90.734 21.0982 90.717C30.8412 90.633 40.5842 90.698 50.3272 90.678C56.2742 90.668 62.2192 90.5989 68.1652 90.5549" fill="#232222"/>
<path d="M77.9683 95.477C78.6083 94.654 79.0092 93.57 80.2532 93.418C80.1072 94.787 79.4533 95.595 77.9683 95.477Z" fill="#422C1F"/>
<path d="M14.9801 70.178C14.9931 70.755 15.0081 71.3319 14.3001 71.5499C14.2459 71.4158 14.2206 71.2717 14.2261 71.1271C14.2316 70.9826 14.2676 70.8408 14.3318 70.7112C14.3961 70.5816 14.4871 70.467 14.5988 70.3751C14.7105 70.2832 14.8405 70.216 14.9801 70.178Z" fill="#422C1F"/>
<path d="M14.2603 90.2861C14.3046 90.3808 14.3404 90.4791 14.3672 90.5801C14.3752 90.6191 14.3093 90.6711 14.2783 90.7161C14.2713 90.5721 14.2673 90.4301 14.2603 90.2861Z" fill="#422C1F"/>
<path d="M68.165 90.566C62.22 90.61 56.274 90.678 50.327 90.689C40.584 90.708 30.8409 90.644 21.0979 90.728C19.4079 90.743 18.954 90.293 18.998 88.628C19.118 84.318 19.063 80.002 19.027 75.688C19.019 74.647 19.158 74.007 20.441 74.011C36.283 74.0543 52.1243 74.079 67.965 74.085C68.186 74.1093 68.4036 74.158 68.614 74.23C68.198 74.9366 68.0314 75.7624 68.141 76.575C68.1523 81.2416 68.1593 85.906 68.162 90.568M53.875 82.255C53.854 78.278 51.341 75.883 47.199 75.891C46.3179 75.8431 45.4363 75.976 44.6084 76.2816C43.7806 76.5871 43.0241 77.0589 42.3854 77.6677C41.7467 78.2766 41.2395 79.0097 40.8948 79.822C40.55 80.6343 40.3752 81.5086 40.381 82.391C40.4438 84.1944 41.2058 85.9026 42.5057 87.1542C43.8056 88.4058 45.5415 89.1025 47.346 89.097C48.2306 89.0982 49.1062 88.9196 49.9197 88.572C50.7331 88.2244 51.4674 87.7151 52.078 87.075C52.6887 86.435 53.1628 85.6775 53.4717 84.8485C53.7806 84.0196 53.9178 83.1366 53.875 82.253" fill="#FFF6D4"/>
<path d="M68.1613 90.5659C68.1546 85.8992 68.1476 81.2349 68.1403 76.5729C68.0307 75.7603 68.1972 74.9344 68.6132 74.2279C75.5202 73.4649 75.5202 73.4649 75.5222 80.2689C75.5222 83.0969 75.4773 85.9249 75.5463 88.7509C75.5803 90.0959 75.3573 90.8439 73.7313 90.6849C71.8873 90.5069 70.0193 90.5938 68.1613 90.5648" fill="#CFCFCF"/>
<path d="M53.8731 82.2541C53.9159 83.1375 53.7788 84.0204 53.47 84.8491C53.1613 85.6779 52.6873 86.4354 52.0769 87.0754C51.4665 87.7154 50.7324 88.2248 49.9192 88.5725C49.106 88.9202 48.2306 89.099 47.3461 89.0981C45.5417 89.1034 43.806 88.4065 42.5062 87.155C41.2063 85.9035 40.4442 84.1954 40.3811 82.3921C40.3731 78.6491 43.2572 75.8971 47.1972 75.8921C51.3412 75.8841 53.8521 78.2791 53.8731 82.2561M47.1732 80.3221C46.9105 80.3119 46.6487 80.3581 46.4053 80.4574C46.1619 80.5567 45.9426 80.7068 45.762 80.8978C45.5814 81.0889 45.4437 81.3163 45.3582 81.5648C45.2727 81.8134 45.2413 82.0774 45.2661 82.3391C45.2661 83.4901 45.8481 84.5031 47.0661 84.4671C47.3656 84.4709 47.6626 84.4127 47.9386 84.2965C48.2145 84.1802 48.4636 84.0082 48.6701 83.7913C48.8765 83.5744 49.0361 83.3172 49.1386 83.0358C49.2412 82.7545 49.2846 82.455 49.2661 82.1561C49.2705 81.8907 49.2169 81.6275 49.1091 81.385C49.0013 81.1424 48.8418 80.9262 48.6419 80.7516C48.4419 80.577 48.2063 80.4481 47.9514 80.3739C47.6966 80.2997 47.4286 80.2821 47.1662 80.3221" fill="#232222"/>
<path d="M47.1822 80.3202C47.4446 80.2802 47.7126 80.2978 47.9674 80.372C48.2223 80.4462 48.4579 80.5751 48.6579 80.7497C48.8578 80.9243 49.0173 81.1404 49.1251 81.383C49.2329 81.6256 49.2865 81.8888 49.2822 82.1542C49.3005 82.4531 49.2569 82.7525 49.1543 83.0338C49.0517 83.3151 48.8922 83.5722 48.6858 83.7891C48.4793 84.0059 48.2303 84.1779 47.9544 84.2943C47.6785 84.4106 47.3816 84.4687 47.0822 84.4652C45.8632 84.5002 45.2822 83.4872 45.2822 82.3372C45.2573 82.0755 45.2887 81.8115 45.3742 81.5629C45.4597 81.3144 45.5974 81.087 45.778 80.8959C45.9586 80.7049 46.1779 80.5548 46.4213 80.4555C46.6647 80.3562 46.9265 80.31 47.1892 80.3202" fill="#B06934"/>
</g>
<defs>
<clipPath id="clip0_146_510">
<rect width="97.505" height="109.939" fill="white"/>
</clipPath>
</defs>
</svg>
