<svg width="22" height="22" viewBox="0 0 22 22" fill="none" xmlns="http://www.w3.org/2000/svg">
<g id="briefcase 1">
<path id="Vector" d="M18.332 6.41675H3.66536C2.65284 6.41675 1.83203 7.23756 1.83203 8.25008V17.4167C1.83203 18.4293 2.65284 19.2501 3.66536 19.2501H18.332C19.3446 19.2501 20.1654 18.4293 20.1654 17.4167V8.25008C20.1654 7.23756 19.3446 6.41675 18.332 6.41675Z" stroke="white" stroke-width="2" stroke-linecap="round" stroke-linejoin="round"/>
<path id="Vector_2" d="M14.6654 19.25V4.58333C14.6654 4.0971 14.4722 3.63079 14.1284 3.28697C13.7846 2.94315 13.3183 2.75 12.832 2.75H9.16536C8.67913 2.75 8.21282 2.94315 7.869 3.28697C7.52519 3.63079 7.33203 4.0971 7.33203 4.58333V19.25" stroke="white" stroke-width="2" stroke-linecap="round" stroke-linejoin="round"/>
</g>
</svg>
