<svg width="24" height="24" viewBox="0 0 24 24" fill="none" xmlns="http://www.w3.org/2000/svg">
<g id="camera 1">
<rect width="24" height="24" rx="12" fill="#433E40"/>
<path id="Vector" d="M19.4444 15.7778C19.4444 16.1019 19.3157 16.4128 19.0865 16.642C18.8573 16.8712 18.5464 17 18.2222 17H7.22222C6.89807 17 6.58719 16.8712 6.35798 16.642C6.12877 16.4128 6 16.1019 6 15.7778V9.05556C6 8.7314 6.12877 8.42052 6.35798 8.19131C6.58719 7.9621 6.89807 7.83333 7.22222 7.83333H9.66667L10.8889 6H14.5556L15.7778 7.83333H18.2222C18.5464 7.83333 18.8573 7.9621 19.0865 8.19131C19.3157 8.42052 19.4444 8.7314 19.4444 9.05556V15.7778Z" stroke="white" stroke-width="1.22222" stroke-linecap="round" stroke-linejoin="round"/>
<path id="Vector_2" d="M12.4444 14.5554C13.7945 14.5554 14.8889 13.461 14.8889 12.1109C14.8889 10.7609 13.7945 9.6665 12.4444 9.6665C11.0944 9.6665 10 10.7609 10 12.1109C10 13.461 11.0944 14.5554 12.4444 14.5554Z" stroke="white" stroke-width="1.22222" stroke-linecap="round" stroke-linejoin="round"/>
</g>
</svg>
