<svg width="22" height="22" viewBox="0 0 22 22" fill="none" xmlns="http://www.w3.org/2000/svg">
<g id="cancel">
<circle id="Ellipse 270" cx="10.9992" cy="11" r="8.8" fill="white"/>
<path id="Vector" d="M10.9987 1.83325C16.0404 1.83325 20.1654 5.95825 20.1654 10.9999C20.1654 16.0416 16.0404 20.1666 10.9987 20.1666C5.95703 20.1666 1.83203 16.0416 1.83203 10.9999C1.83203 5.95825 5.95703 1.83325 10.9987 1.83325ZM10.9987 3.66659C9.25703 3.66659 7.6987 4.21658 6.50703 5.22492L16.7737 15.4916C17.6904 14.2083 18.332 12.6499 18.332 10.9999C18.332 6.96659 15.032 3.66659 10.9987 3.66659ZM15.4904 16.7749L5.2237 6.50825C4.21536 7.69992 3.66536 9.25825 3.66536 10.9999C3.66536 15.0333 6.96536 18.3333 10.9987 18.3333C12.7404 18.3333 14.2987 17.7833 15.4904 16.7749Z" fill="#B91B2E"/>
</g>
</svg>
