<svg width="18" height="18" viewBox="0 0 18 18" fill="none" xmlns="http://www.w3.org/2000/svg">
<g id="cart-arrow-right">
<path id="Vector" d="M6.75 15C6.75 15.3978 6.59196 15.7794 6.31066 16.0607C6.02935 16.342 5.64782 16.5 5.25 16.5C4.85217 16.5 4.47064 16.342 4.18934 16.0607C3.90803 15.7794 3.75 15.3978 3.75 15C3.75 14.6022 3.90803 14.2206 4.18934 13.9393C4.47064 13.658 4.85217 13.5 5.25 13.5C5.64782 13.5 6.02935 13.658 6.31066 13.9393C6.59196 14.2206 6.75 14.6022 6.75 15ZM12.75 13.5C12.3522 13.5 11.9706 13.658 11.6893 13.9393C11.408 14.2206 11.25 14.6022 11.25 15C11.25 15.3978 11.408 15.7794 11.6893 16.0607C11.9706 16.342 12.3522 16.5 12.75 16.5C13.1478 16.5 13.5294 16.342 13.8107 16.0607C14.092 15.7794 14.25 15.3978 14.25 15C14.25 14.6022 14.092 14.2206 13.8107 13.9393C13.5294 13.658 13.1478 13.5 12.75 13.5ZM5.4 10.9725C5.3925 11.0025 5.3925 11.0325 5.4 11.0625C5.4 11.1122 5.41975 11.1599 5.45492 11.1951C5.49008 11.2302 5.53777 11.25 5.5875 11.25H14.25V12.75H5.25C4.85217 12.75 4.47064 12.592 4.18934 12.3107C3.90803 12.0294 3.75 11.6478 3.75 11.25C3.75 10.9875 3.8025 10.7325 3.93 10.5L4.95 8.6925L2.25 3H0.75V1.5H3.2025L3.9075 3H15C15.1989 3 15.3897 3.07902 15.5303 3.21967C15.671 3.36032 15.75 3.55109 15.75 3.75C15.75 3.8775 15.7125 4.005 15.66 4.125L12.975 9C12.705 9.465 12.2025 9.75 11.6625 9.75H6.075L5.4 10.9725ZM6.75 7.125H9.75V8.625L12 6.375L9.75 4.125V5.625H6.75V7.125Z" fill="white"/>
</g>
</svg>
