<svg width="56" height="56" viewBox="0 0 56 56" fill="none" xmlns="http://www.w3.org/2000/svg">
<g id="radix-icons:cross-circled">
<path id="Vector" fill-rule="evenodd" clip-rule="evenodd" d="M3.27393 28C3.27393 21.4423 5.87897 15.1532 10.516 10.5162C15.153 5.87921 21.4421 3.27417 27.9998 3.27417C34.5575 3.27417 40.8466 5.87921 45.4836 10.5162C50.1206 15.1532 52.7257 21.4423 52.7257 28C52.7257 34.5577 50.1206 40.8469 45.4836 45.4839C40.8466 50.1209 34.5575 52.7259 27.9998 52.7259C21.4421 52.7259 15.153 50.1209 10.516 45.4839C5.87897 40.8469 3.27393 34.5577 3.27393 28ZM27.9998 6.82084C22.3827 6.82084 16.9957 9.05221 13.0238 13.0241C9.05197 16.996 6.82059 22.383 6.82059 28C6.82059 33.6171 9.05197 39.0041 13.0238 42.976C16.9957 46.9479 22.3827 49.1792 27.9998 49.1792C33.6169 49.1792 39.0039 46.9479 42.9757 42.976C46.9476 39.0041 49.179 33.6171 49.179 28C49.179 22.383 46.9476 16.996 42.9757 13.0241C39.0039 9.05221 33.6169 6.82084 27.9998 6.82084ZM36.7881 19.2155C37.138 19.5656 37.3346 20.0403 37.3346 20.5352C37.3346 21.0302 37.138 21.5049 36.7881 21.855L30.6393 28L36.7881 34.1451C37.1386 34.4956 37.3355 34.971 37.3355 35.4667C37.3355 35.9624 37.1386 36.4378 36.7881 36.7883C36.4375 37.1388 35.9622 37.3357 35.4665 37.3357C34.9708 37.3357 34.4954 37.1388 34.1449 36.7883L27.9998 30.6395L21.8547 36.7883C21.6812 36.9619 21.4751 37.0995 21.2484 37.1935C21.0216 37.2874 20.7786 37.3357 20.5331 37.3357C20.2877 37.3357 20.0446 37.2874 19.8179 37.1935C19.5911 37.0995 19.3851 36.9619 19.2115 36.7883C19.038 36.6147 18.9003 36.4087 18.8064 36.1819C18.7124 35.9552 18.6641 35.7121 18.6641 35.4667C18.6641 35.2213 18.7124 34.9782 18.8064 34.7515C18.9003 34.5247 19.038 34.3187 19.2115 34.1451L25.3603 28L19.2115 21.855C18.861 21.5045 18.6641 21.0291 18.6641 20.5334C18.6641 20.0377 18.861 19.5623 19.2115 19.2118C19.562 18.8613 20.0374 18.6643 20.5331 18.6643C21.0288 18.6643 21.5042 18.8613 21.8547 19.2118L27.9998 25.3606L34.1449 19.2118C34.3183 19.0379 34.5242 18.9 34.751 18.8059C34.9778 18.7118 35.2209 18.6634 35.4665 18.6634C35.712 18.6634 35.9551 18.7118 36.1819 18.8059C36.4087 18.9 36.6147 19.0417 36.7881 19.2155Z" fill="black"/>
</g>
</svg>
