<svg width="111" height="110" viewBox="0 0 111 110" fill="none" xmlns="http://www.w3.org/2000/svg">
<g clip-path="url(#clip0_146_481)">
<path d="M59.1429 80.0609C52.7709 79.8329 47.9889 76.8209 44.2239 71.6609C41.2729 67.6109 40.2779 63.0119 39.3079 58.2739C37.8629 51.2169 42.6919 39.4169 48.9299 35.8169C57.5159 30.8739 65.8749 33.5509 71.9129 41.3889C74.9977 45.5758 76.7724 50.5829 77.0129 55.7779C77.3359 60.8613 76.1317 65.9252 73.5549 70.3189C71.1392 74.7669 67.1285 78.1348 62.3299 79.745C61.283 79.964 60.2154 80.0692 59.1459 80.0589M71.2549 55.7589C71.0549 54.7829 70.8089 53.075 70.3659 51.417C69.1219 46.765 66.8879 42.765 62.5539 40.271C61.8189 39.848 61.0349 39.3809 60.2689 40.3709C58.2549 42.9599 57.5459 51.0079 59.6579 53.6129C63.9889 58.9589 63.6579 64.76 62.1579 70.849C61.9849 71.555 61.2009 72.415 61.9239 73.008C62.7009 73.643 63.5319 72.7499 64.3039 72.4809C64.8486 72.2174 65.332 71.8427 65.7229 71.3809C69.9119 67.2919 71.2049 62.1069 71.2509 55.7649M54.2339 40.0069C53.7475 39.9796 53.2612 40.0606 52.8099 40.2439C52.3585 40.4272 51.9535 40.7082 51.6239 41.0669C49.6414 42.5952 48.0293 44.5511 46.9079 46.789C45.7864 49.0269 45.1845 51.4891 45.1469 53.992C44.8999 60.703 46.5129 66.692 51.6949 71.307C54.6039 73.899 55.3499 73.679 56.4319 69.9249C57.7539 65.339 58.5319 60.848 54.9519 56.693C53.2179 54.683 52.8619 51.9929 52.7459 49.3529C52.6099 46.2079 53.5269 43.2239 54.2339 40.0069Z" fill="#232222"/>
<path d="M94.7579 67.9701C105.167 66.9911 111.206 77.1071 109.963 86.7041C109.276 91.6793 107.238 96.3707 104.07 100.267C100.901 104.164 96.7243 107.117 91.9939 108.804C83.3499 111.742 76.4459 108.689 72.8749 102.98C68.8589 96.5611 69.0189 89.8391 72.4019 83.0041C75.211 77.2257 79.8037 72.5036 85.5019 69.5351C88.4659 67.9421 91.5879 67.9722 94.7589 67.9712M104.408 84.5331C104.382 82.8061 104.508 81.0651 103.608 79.4621C103.239 78.8061 102.934 78.2451 102.037 78.6461C97.8739 80.5091 93.6579 82.9621 93.1469 87.6811C92.4569 94.0561 88.8939 97.8251 84.0859 101.089C83.3489 101.589 81.9059 101.855 82.2309 102.913C82.5379 103.913 83.9519 103.805 84.9609 103.942C85.3065 103.972 85.6536 103.978 85.9999 103.96C95.2389 103.97 104.371 94.3321 104.411 84.5321M75.7109 93.0321C75.7039 94.3914 75.8956 95.7443 76.2799 97.0481C76.4459 97.7771 76.8079 98.2891 77.7209 98.1811C80.8789 97.8061 87.2829 92.1181 87.4379 88.7611C87.7109 82.8961 91.0889 79.3171 95.3379 76.0611C96.2299 75.3771 98.2519 75.0461 97.7829 73.8681C97.3139 72.6901 95.3089 73.3251 94.0139 72.9871C93.9379 72.9681 93.8459 73.0272 93.7599 73.0362C83.8799 73.8602 76.0049 83.1652 75.7089 93.0362" fill="#232222"/>
<path d="M110.07 23.663C110.07 24.182 110.059 24.7021 110.054 25.2211C109.233 28.3111 109.191 31.5781 107.924 34.5661C106.685 36.4644 105.306 38.2671 103.798 39.9591C99.516 44.1431 94.588 46.709 88.355 44.038C85.8625 42.851 83.7183 41.041 82.1297 38.7832C80.541 36.5254 79.5616 33.896 79.286 31.1491C78.886 25.5491 79.7 20.243 82.786 15.611C85.378 11.725 88.7519 8.59809 93.8519 7.99209C103.58 6.83709 107.166 12.4561 109.452 19.0391C109.804 20.5611 109.008 22.2391 110.063 23.6641M94.965 38.7681C99.572 37.8051 103.955 32.1811 104.341 26.5681C104.587 22.9841 104.504 19.4251 102.103 16.3981C101.544 15.6981 100.972 14.8611 100.031 15.8131C98.302 17.5631 95.6979 21.8651 97.0539 24.7431C98.8869 28.6331 97.72 32.1521 95.913 35.6251C95.391 36.6251 94.743 37.5791 94.993 38.7971C94.9209 38.7966 94.8493 38.8081 94.781 38.8311C94.746 38.8491 94.7409 38.931 94.7229 38.9781L94.9639 38.7651M84.945 28.1221C84.7262 30.86 85.4468 33.5907 86.988 35.8641C87.348 36.4221 87.723 37.403 88.775 36.564C90.385 35.286 92.875 28.9231 92.125 27.1641C90.461 23.2711 91.592 19.7251 93.056 16.1491C93.35 15.4281 94.5729 14.6871 93.6019 13.9491C92.9489 13.4561 91.925 14.1991 91.285 14.7151C89.2122 16.2592 87.5502 18.2885 86.4448 20.6248C85.3394 22.9612 84.8244 25.5332 84.945 28.1151" fill="#232222"/>
<path d="M44.4519 15.8421C43.1239 23.1951 38.4049 27.794 31.9389 30.753C28.2529 32.44 24.2969 33.2451 20.2289 31.9941C15.6289 30.5781 11.3089 25.7941 10.9109 20.8031C10.2019 11.8121 16.2679 4.67504 24.1109 1.40904C26.4062 0.441304 28.8781 -0.0370571 31.3688 0.00443934C33.8594 0.0459358 36.3141 0.606405 38.5759 1.65007C40.2389 2.37903 41.6679 3.55357 42.7051 5.04393C43.7422 6.53429 44.3471 8.28243 44.4529 10.0951C44.4459 10.6651 44.0719 11.3441 44.9249 11.6551C44.9329 12.1851 44.9399 12.717 44.9479 13.248C43.9479 13.948 44.5589 14.9661 44.4479 15.8421M24.2329 26.729C26.134 26.7335 28.0149 26.3401 29.7549 25.5741C32.0771 24.7215 34.1415 23.2868 35.7502 21.4075C37.3588 19.5281 38.4578 17.267 38.9419 14.841C39.1419 13.909 40.1219 11.6671 37.9679 11.9111C35.1769 12.2261 32.1209 13.1861 31.0679 16.2311C29.5929 20.4971 26.4429 22.7421 22.6209 24.4551C22.0299 24.7201 20.9729 24.688 21.0409 25.531C21.1189 26.475 22.2409 26.3211 22.9269 26.5801C23.3524 26.6946 23.7925 26.7451 24.2329 26.7301M30.7079 5.91106C28.0979 5.48106 25.8789 6.47009 23.8139 7.82109C20.2111 9.97574 17.5519 13.4082 16.3659 17.435C16.1409 18.259 15.4189 19.835 17.4069 19.992C20.0539 20.207 24.6399 17.4231 25.4599 14.8591C26.4599 11.7301 28.6319 9.82704 31.3309 8.22404C32.3179 7.63704 34.4519 7.82403 34.1509 6.52403C33.8289 5.14403 31.8679 6.23107 30.7089 5.91307" fill="#232222"/>
<path d="M7.37697 65.877C3.59387 62.6608 1.07153 58.2092 0.256974 53.311C-0.553026 48.133 0.494961 43.571 4.34996 39.985C7.96996 36.617 12.378 35.935 17.076 37.278C26.098 39.86 30.642 46.554 32.585 55.133C34.03 61.515 29.227 68.213 23.172 70.21C20.7581 70.9858 18.1876 71.1409 15.698 70.661L13.098 69.549L12.985 69.421L12.815 69.427C12.359 68.8941 11.7179 68.5538 11.021 68.475C10.8426 68.2737 10.6188 68.1179 10.3682 68.0204C10.1177 67.9228 9.84746 67.8864 9.57997 67.914C9.5686 67.8404 9.54224 67.7698 9.50255 67.7068C9.46286 67.6437 9.41064 67.5896 9.34917 67.5475C9.28769 67.5054 9.21826 67.4763 9.14513 67.4622C9.07199 67.448 8.99672 67.4489 8.92397 67.465C8.40797 66.935 8.18496 66.121 7.37596 65.875M5.70696 48.668C5.72096 51.511 5.79097 54.268 7.34197 56.887C8.46179 58.9464 10.0082 60.7432 11.8779 62.1573C13.7475 63.5714 15.8975 64.5701 18.184 65.087C19.084 65.292 20.7 65.648 20.264 63.887C19.564 61.051 18.85 57.736 15.896 56.587C13.8515 55.8762 12.0054 54.6895 10.5101 53.1246C9.01479 51.5597 7.91309 49.6616 7.29598 47.587C6.86798 46.265 6.38598 47.03 5.94698 47.615C5.40098 47.859 5.13395 48.168 5.71095 48.665M25.565 61.32C26.4339 60.3094 26.931 59.0321 26.974 57.7C27.426 52.377 21.966 44.468 16.842 43.036C15.5929 42.7419 14.3221 42.5489 13.042 42.459C11.866 42.331 11.534 42.816 11.89 43.997C12.831 47.131 13.905 50.086 17.485 51.18C18.6833 51.6726 19.7834 52.3764 20.733 53.258C23.314 55.242 24.2139 58.258 25.5679 61.319" fill="#232222"/>
<path d="M25.126 105.98C25.4742 105.669 25.9247 105.497 26.3915 105.497C26.8583 105.497 27.3088 105.669 27.657 105.98C26.8388 106.273 25.9441 106.273 25.126 105.98Z" fill="#422C1F"/>
<path d="M13.0979 69.5459L15.6979 70.6579C14.4179 71.2579 13.2349 71.6229 13.0979 69.5459Z" fill="#CFCFCF"/>
<path d="M7.37706 65.875C8.18706 66.119 8.41006 66.933 8.92506 67.465C7.77006 67.555 7.28806 66.993 7.37706 65.875Z" fill="#CFCFCF"/>
<path d="M11.021 68.4731C11.7179 68.5521 12.359 68.8923 12.815 69.4252C11.967 69.5802 11.184 69.6111 11.021 68.4731Z" fill="#CFCFCF"/>
<path d="M8.92383 67.463C8.99657 67.4471 9.07179 67.4463 9.14487 67.4605C9.21795 67.4748 9.28734 67.5039 9.34879 67.5459C9.41023 67.588 9.46243 67.6421 9.50217 67.7051C9.5419 67.7681 9.56832 67.8385 9.57983 67.9121L8.92383 67.463Z" fill="#CFCFCF"/>
<path d="M71.252 55.7639C71.205 62.1049 69.912 67.2909 65.725 71.3799C65.3333 71.8413 64.8497 72.216 64.305 72.4799C63.532 72.7479 62.705 73.6419 61.926 73.0069C61.202 72.4139 61.986 71.5539 62.16 70.8479C63.66 64.7589 63.988 58.9569 59.66 53.6119C57.548 51.0119 58.26 42.9589 60.271 40.3699C61.039 39.3829 61.821 39.8499 62.556 40.2699C66.89 42.7629 69.123 46.7649 70.368 51.4169C70.811 53.0729 71.061 54.7809 71.257 55.7579" fill="#B06934"/>
<path d="M54.235 40.0059C53.527 43.2229 52.611 46.206 52.747 49.353C52.863 51.997 53.219 54.683 54.953 56.693C58.537 60.848 57.753 65.3389 56.433 69.9249C55.352 73.679 54.605 73.899 51.697 71.307C46.514 66.69 44.897 60.707 45.149 53.992C45.1866 51.4891 45.7886 49.027 46.91 46.7891C48.0315 44.5512 49.6435 42.5952 51.626 41.067C51.9559 40.7086 52.361 40.4277 52.8122 40.2445C53.2635 40.0612 53.7497 39.9801 54.236 40.007" fill="#B06934"/>
<path d="M104.403 84.5351C104.367 94.3351 95.2351 103.972 85.9971 103.961C85.6514 103.979 85.3049 103.973 84.9601 103.943C83.9501 103.806 82.5361 103.919 82.2271 102.914C81.9041 101.857 83.3471 101.59 84.0821 101.089C88.8911 97.8261 92.4551 94.0581 93.1451 87.6811C93.6561 82.9621 97.8721 80.5091 102.033 78.6471C102.933 78.2471 103.233 78.8072 103.607 79.4632C104.507 81.0632 104.383 82.8071 104.407 84.5341" fill="#B06934"/>
<path d="M75.708 93.0351C76.008 83.1681 83.879 73.8631 93.759 73.0351C93.845 73.0271 93.937 72.9671 94.013 72.9861C95.307 73.3241 97.313 72.6861 97.782 73.8671C98.251 75.0481 96.229 75.3771 95.337 76.0601C91.087 79.3161 87.709 82.8961 87.437 88.7601C87.282 92.1171 80.878 97.8051 77.72 98.1801C76.807 98.2881 76.445 97.7801 76.279 97.0471C75.8947 95.7433 75.703 94.3903 75.71 93.0311" fill="#B06934"/>
<path d="M94.991 38.8022C94.741 37.5842 95.391 36.6302 95.909 35.6302C97.717 32.1572 98.8821 28.6382 97.0501 24.7482C95.6941 21.8702 98.2991 17.5682 100.028 15.8182C100.967 14.8662 101.539 15.6981 102.098 16.4031C104.498 19.4301 104.582 22.9882 104.336 26.5732C103.951 32.1842 99.569 37.8072 94.962 38.7732L94.991 38.8022Z" fill="#B06934"/>
<path d="M84.943 28.1242C84.8225 25.5424 85.3375 22.9704 86.4429 20.634C87.5483 18.2977 89.2103 16.2684 91.283 14.7242C91.923 14.2082 92.947 13.4652 93.6 13.9582C94.571 14.6952 93.348 15.4372 93.054 16.1582C91.59 19.7342 90.454 23.2802 92.123 27.1732C92.876 28.9332 90.383 35.2952 88.773 36.5732C87.721 37.4072 87.346 36.4262 86.986 35.8732C85.4447 33.5998 84.7241 30.8691 84.943 28.1312" fill="#B06934"/>
<path d="M94.961 38.769L94.719 38.981C94.738 38.931 94.743 38.853 94.779 38.834C94.8474 38.8115 94.919 38.8007 94.991 38.802L94.962 38.77" fill="#B06934"/>
<path d="M25.126 105.979C17.337 106.108 11.539 101.737 9.78399 95.0189C8.42299 89.8039 10.456 85.2839 14.291 81.8689C17.1249 79.2271 20.6152 77.3935 24.3985 76.559C28.1818 75.7244 32.1197 75.9195 35.802 77.1239C44.249 79.6579 48.035 85.9139 45.235 94.5509C43.451 100.06 38.764 103.591 33.028 105.21C31.3082 105.828 29.4802 106.089 27.656 105.976C27.3086 105.664 26.8583 105.492 26.3915 105.492C25.9247 105.492 25.4744 105.664 25.127 105.976M38.327 85.1759C38.369 85.1209 38.455 85.0499 38.443 85.0139C38.3931 84.9001 38.3325 84.7912 38.262 84.6889C32.079 78.9229 21.24 81.6589 16.962 87.4619C15.391 89.5919 15.884 90.8309 18.53 90.8489C21.693 90.8699 24.967 90.8489 27.26 87.9769C27.8856 87.3839 28.6192 86.9164 29.421 86.5999C32.236 85.0129 35.429 86.0489 38.33 85.1749M16.614 96.1929C20.476 100.605 25.022 100.821 29.646 100.133C31.6695 99.8446 33.6032 99.1083 35.306 97.9778C37.0089 96.8472 38.4379 95.3509 39.489 93.5979C40.289 92.3359 40.399 91.6979 38.618 91.3529C35.19 90.6809 32.128 90.8699 29.504 93.5719C27.8131 95.2449 25.5297 96.1823 23.151 96.1799C21.171 96.2449 19.189 96.1929 16.614 96.1929Z" fill="#232222"/>
<path d="M16.6079 96.1989C19.1819 96.1989 21.1649 96.2509 23.1449 96.1859C25.5233 96.1879 27.8062 95.2505 29.4969 93.5779C32.1209 90.8779 35.1839 90.6869 38.6109 91.3589C40.3919 91.7079 40.2839 92.3419 39.4819 93.6039C38.4309 95.3569 37.0019 96.8532 35.299 97.9838C33.5962 99.1144 31.6625 99.8506 29.6389 100.139C25.0159 100.827 20.4699 100.611 16.6069 96.1989" fill="#B06934"/>
<path d="M38.324 85.1839C35.424 86.0579 32.23 85.024 29.415 86.609C28.6135 86.9265 27.88 87.3942 27.254 87.9869C24.961 90.8559 21.687 90.8779 18.524 90.8569C15.879 90.8409 15.386 89.5999 16.956 87.4699C21.237 81.6699 32.075 78.9329 38.256 84.6969C38.2342 84.7784 38.2287 84.8633 38.2399 84.9469C38.251 85.0305 38.2786 85.111 38.321 85.1839" fill="#B06934"/>
<path d="M38.3239 85.1789C38.2816 85.1061 38.2541 85.0258 38.243 84.9424C38.2318 84.859 38.2372 84.7742 38.2588 84.6929C38.329 84.7954 38.3896 84.9042 38.4398 85.0179C38.4508 85.0549 38.3659 85.1239 38.3239 85.1789Z" fill="#422C1F"/>
<path d="M24.235 26.7281C23.7946 26.7429 23.3545 26.6924 22.929 26.5781C22.247 26.3191 21.122 26.473 21.045 25.529C20.976 24.685 22.0339 24.7161 22.6239 24.4531C26.4459 22.7401 29.597 20.4941 31.071 16.2291C32.125 13.1841 35.182 12.229 37.971 11.909C40.128 11.665 39.151 13.909 38.945 14.839C38.4612 17.2653 37.3623 19.5266 35.7536 21.4061C34.1449 23.2857 32.0804 24.7205 29.7579 25.573C28.0181 26.3395 26.1371 26.7333 24.2359 26.7291" fill="#B06934"/>
<path d="M30.7131 5.91001C31.8721 6.22801 33.8341 5.14098 34.1551 6.52098C34.4551 7.82098 32.3221 7.63599 31.3351 8.22099C28.6351 9.82099 26.4641 11.728 25.4641 14.856C24.6451 17.419 20.0591 20.203 17.4111 19.989C15.4231 19.829 16.1461 18.257 16.3701 17.432C17.5562 13.4051 20.2153 9.97262 23.8181 7.81797C25.8831 6.46697 28.1021 5.478 30.7121 5.908" fill="#B06934"/>
<path d="M25.5609 61.3199C24.2069 58.2539 23.3069 55.2439 20.7259 53.2589C19.7764 52.3774 18.6762 51.6735 17.4779 51.1809C13.8989 50.0869 12.8239 47.1309 11.8829 43.9979C11.5269 42.8169 11.8589 42.3319 13.0349 42.4599C14.315 42.5498 15.5858 42.7427 16.8349 43.0369C21.9589 44.4689 27.4199 52.3769 26.9669 57.7009C26.924 59.0329 26.4268 60.3103 25.5579 61.3209" fill="#B06934"/>
<path d="M5.94409 47.617C6.38409 47.03 6.86409 46.266 7.29309 47.588C7.91043 49.6625 9.01221 51.5605 10.5075 53.1254C12.0028 54.6902 13.8488 55.8771 15.8931 56.588C18.8461 57.74 19.5551 61.056 20.2591 63.888C20.6971 65.648 19.0841 65.288 18.1791 65.088C15.8927 64.5715 13.7429 63.5728 11.8735 62.1587C10.0041 60.7446 8.45817 58.9476 7.33908 56.888C5.78608 54.27 5.7181 51.513 5.7041 48.672C5.79554 48.6252 5.87555 48.5589 5.93848 48.4777C6.00141 48.3966 6.04571 48.3025 6.06824 48.2023C6.09076 48.1021 6.09096 47.9982 6.06882 47.8979C6.04667 47.7976 6.00272 47.7034 5.94009 47.622" fill="#B06934"/>
<path d="M5.944 47.6172C6.00662 47.6986 6.05058 47.7928 6.07272 47.8931C6.09487 47.9934 6.09466 48.0973 6.07214 48.1975C6.04962 48.2977 6.00534 48.3917 5.94241 48.4729C5.87948 48.5541 5.79944 48.6204 5.70801 48.6672C5.12901 48.1672 5.396 47.8612 5.944 47.6172Z" fill="#422C1F"/>
</g>
<defs>
<clipPath id="clip0_146_481">
<rect width="110.125" height="109.94" fill="white"/>
</clipPath>
</defs>
</svg>
