<svg width="119" height="110" viewBox="0 0 119 110" fill="none" xmlns="http://www.w3.org/2000/svg">
<g clip-path="url(#clip0_146_466)">
<path d="M87 94.304C86.9741 94.3048 86.9487 94.3118 86.926 94.3245C86.9033 94.3371 86.884 94.355 86.8696 94.3766C86.8552 94.3982 86.8462 94.4229 86.8433 94.4487C86.8404 94.4745 86.8438 94.5007 86.853 94.525C86.5336 94.695 86.2751 94.9604 86.1138 95.2844C85.9524 95.6083 85.8962 95.9745 85.953 96.3319C85.368 96.3209 85.221 96.667 84.93 97.164C82.424 101.427 78.9921 105.072 74.888 107.831C72.9509 109.198 70.6379 109.932 68.267 109.931C56.767 109.882 45.273 109.85 33.773 109.931C28.736 109.967 25.329 107.489 22.002 103.945C17.4481 99.0231 13.7643 93.3628 11.108 87.2059C7.03406 78.1118 4.00729 68.584 2.08603 58.806C1.45903 55.577 0.567011 52.3869 0.140011 49.1339C-0.344989 45.4429 0.340014 44.578 4.28701 44.578C21.1937 44.578 38.0984 44.5746 55.001 44.5679C70.188 44.5679 85.376 44.4519 100.563 44.6409C105.225 44.6989 109.839 45.625 113.457 49.151C119.105 54.66 120.508 66.7509 116.078 73.9509C112.883 79.0693 108.417 83.2725 103.114 86.151C99.4915 88.385 95.3912 89.7291 91.149 90.0729C88.689 90.1829 88.187 91.5629 87.613 93.2869C87.4204 93.37 87.2583 93.5108 87.1492 93.69C87.0401 93.8691 86.9894 94.0777 87.004 94.2869M64.383 100.102L27.354 100.073C26.958 100.116 26.562 100.161 26.166 100.207C26.2337 100.453 26.3745 100.673 26.5699 100.838C26.7652 101.002 27.0058 101.103 27.26 101.128C28.884 103.109 30.812 104.484 33.525 104.47C42.6037 104.421 51.6823 104.388 60.761 104.37C63.24 104.399 65.733 104.619 68.19 104.409C69.6224 104.268 71.0049 103.808 72.2361 103.063C73.4673 102.317 74.516 101.306 75.305 100.102H64.383ZM70 94.315C72.972 94.89 75.976 94.456 78.962 94.596C79.982 94.643 80.373 93.802 80.893 93.138C84.393 88.683 86.216 83.3839 88.319 78.2479C90.6882 72.0702 92.5131 65.6973 93.773 59.202C94.308 56.744 94.718 54.259 95.268 51.802C95.54 50.592 95.283 50.013 93.941 50.054C90.778 50.148 87.613 50.186 84.447 50.254C83.51 50.189 82.572 50.0699 81.637 50.0679C57.379 50.0533 33.1204 50.047 8.86102 50.049C6.00602 50.049 5.67402 50.312 6.36102 53.129C7.70602 58.669 8.83802 64.252 10.322 69.767C12.5695 77.6787 15.7904 85.2808 19.911 92.3989C20.236 93.1251 20.7808 93.731 21.4685 94.1311C22.1562 94.5311 22.9521 94.7053 23.744 94.629C38.316 94.564 52.887 94.6 67.462 94.585C68.3126 94.5419 69.1602 94.4524 70.001 94.317M103.493 50.533C101.055 50.488 100.644 50.7029 100.539 52.5809C100.439 54.2809 99.731 56.348 102.685 56.611C103.608 56.726 104.484 57.0824 105.224 57.6443C105.965 58.2062 106.544 58.9535 106.904 59.8109C110.267 66.3349 106.804 73.9769 99.571 76.3109C97.048 77.1249 93.532 76.775 93.171 80.854C93.1 81.654 92.311 82.6269 92.871 83.2379C93.504 83.9219 94.702 83.676 95.547 83.38C101.329 81.35 106.415 78.28 110.099 73.231C113.081 69.148 113.53 64.6109 112.926 59.6859C112.315 54.7179 108.406 50.628 103.49 50.539M96.36 70.9039C97.348 70.9501 98.3325 70.7577 99.2304 70.343C100.128 69.9282 100.913 69.3033 101.518 68.5211C102.124 67.739 102.532 66.8225 102.708 65.8493C102.884 64.8761 102.824 63.8747 102.531 62.9299C102.04 61.4719 100.681 61.9599 99.766 61.5029C98.813 61.0279 98.591 62.24 98.557 62.663C98.332 65.535 97.269 68.179 96.357 70.903" fill="#232222"/>
<path d="M47.721 17.61C47.721 12.903 47.742 8.194 47.711 3.486C47.698 1.626 47.822 0.0649922 50.324 0.0019922C52.801 -0.0580078 53.092 1.43403 53.091 3.32603C53.0864 12.7407 53.0897 22.1567 53.1011 31.574C53.1011 33.515 52.3421 35.074 50.3381 35.089C48.1821 35.105 47.668 33.434 47.694 31.477C47.755 26.855 47.7131 22.232 47.7131 17.61H47.721Z" fill="#232222"/>
<path d="M35.9249 24.1843C35.9249 26.7473 35.9249 29.3083 35.9249 31.8703C35.9249 33.7583 35.1569 35.1553 33.1469 35.0993C31.1839 35.0443 30.4339 33.6773 30.4469 31.7703C30.4789 26.4743 30.4763 21.1793 30.4389 15.8853C30.4239 14.0853 31.2389 12.5853 32.9049 12.6243C33.3337 12.6171 33.7591 12.702 34.1523 12.8731C34.5455 13.0443 34.8975 13.2978 35.1845 13.6165C35.4714 13.9352 35.6867 14.3117 35.8158 14.7207C35.945 15.1296 35.9849 15.5615 35.9329 15.9873C35.8549 18.7183 35.9139 21.4523 35.9139 24.1873L35.9249 24.1843Z" fill="#232222"/>
<path d="M70.38 23.974C70.38 26.54 70.445 29.108 70.359 31.674C70.298 33.489 69.739 35.195 67.502 35.111C65.471 35.035 64.857 33.548 64.861 31.711C64.876 26.411 64.895 21.104 64.867 15.8C64.856 13.964 65.525 12.88 67.506 12.886C69.442 12.886 70.306 13.9641 70.332 15.7691C70.377 18.5051 70.345 21.2431 70.345 23.9801L70.38 23.974Z" fill="#232222"/>
<path d="M85.95 96.3319C85.8929 95.9748 85.9489 95.6087 86.1103 95.285C86.2717 94.9613 86.5303 94.6962 86.85 94.5269C87.493 95.5999 87.703 96.4579 85.95 96.3319Z" fill="#CFCFCF"/>
<path d="M87.0001 94.3042C86.9845 94.0948 87.0349 93.8858 87.1441 93.7065C87.2533 93.5272 87.4159 93.3865 87.6091 93.3042C88.2671 94.1622 87.6271 94.2272 87.0001 94.3042Z" fill="#CFCFCF"/>
<path d="M69.995 94.331C69.1541 94.4664 68.3066 94.5565 67.456 94.601C52.883 94.615 38.311 94.578 23.74 94.645C22.9479 94.7211 22.1518 94.5467 21.4641 94.1462C20.7764 93.7458 20.2318 93.1395 19.907 92.413C15.7855 85.2957 12.5644 77.6938 10.318 69.782C8.83603 64.265 7.70002 58.682 6.35602 53.142C5.67202 50.325 6.00202 50.064 8.85602 50.064C33.114 50.064 57.372 50.0703 81.63 50.0829C82.567 50.0829 83.503 50.203 84.44 50.267C83.8628 51.8701 83.3819 53.5064 83 55.167C81.0732 66.0411 77.8745 76.6508 73.47 86.778C72.376 89.336 70.27 91.419 69.992 94.335" fill="#FEFEFE"/>
<path d="M69.995 94.3299C70.268 91.4149 72.379 89.33 73.473 86.773C77.8775 76.6458 81.0761 66.036 83.003 55.1619C83.3849 53.5014 83.8657 51.8651 84.443 50.2619C87.609 50.2009 90.775 50.1619 93.943 50.0619C95.281 50.0229 95.543 50.6019 95.268 51.8119C94.717 54.2669 94.306 56.7509 93.768 59.2119C92.5074 65.7075 90.6835 72.0809 88.317 78.26C86.217 83.396 84.384 88.695 80.89 93.148C80.37 93.812 79.977 94.6539 78.957 94.6059C75.971 94.4649 72.966 94.8999 69.995 94.3249" fill="#CFCFCF"/>
<path d="M103.49 50.5471C108.404 50.6371 112.315 54.7261 112.924 59.6921C113.524 64.6191 113.079 69.1561 110.098 73.2391C106.415 78.2841 101.326 81.3581 95.5439 83.3881C94.6999 83.6881 93.5009 83.9291 92.8689 83.2461C92.3049 82.6351 93.0949 81.6611 93.1689 80.8611C93.5289 76.7841 97.0459 77.1341 99.5689 76.3201C106.802 73.9881 110.264 66.3461 106.902 59.8201C106.542 58.9636 105.962 58.2172 105.221 57.6562C104.481 57.0953 103.605 56.7396 102.683 56.6251C99.7269 56.3601 100.44 54.2981 100.535 52.5931C100.642 50.7171 101.049 50.5001 103.491 50.5461" fill="#CFCFCF"/>
<path d="M60.7581 104.385C51.6794 104.416 42.6 104.449 33.5201 104.485C30.8101 104.5 28.8821 103.126 27.2581 101.143C27.2891 100.791 27.319 100.443 27.35 100.088L64.3791 100.117C64.0451 102.279 61.8131 102.833 60.7581 104.385Z" fill="#FEFEFE"/>
<path d="M60.7581 104.385C61.8131 102.833 64.0451 102.279 64.3801 100.117H75.3031C74.5143 101.321 73.4659 102.333 72.2348 103.078C71.0037 103.823 69.6213 104.283 68.1891 104.424C65.7311 104.634 63.2371 104.414 60.7591 104.385" fill="#CFCFCF"/>
<path d="M96.359 70.9129C97.269 68.1879 98.332 65.5449 98.559 62.6729C98.593 62.2499 98.814 61.0379 99.768 61.5129C100.683 61.9699 102.042 61.4819 102.533 62.9399C102.826 63.8847 102.886 64.8862 102.71 65.8595C102.534 66.8328 102.126 67.7493 101.52 68.5315C100.915 69.3137 100.13 69.9386 99.2318 70.3533C98.3337 70.768 97.3491 70.9602 96.361 70.9139" fill="#FFF6D4"/>
<path d="M27.349 100.089L27.257 101.144C27.0019 101.12 26.76 101.019 26.5635 100.855C26.367 100.69 26.2253 100.47 26.157 100.223L27.345 100.089" fill="#CFCFCF"/>
</g>
<defs>
<clipPath id="clip0_146_466">
<rect width="118.691" height="109.941" fill="white"/>
</clipPath>
</defs>
</svg>
