<svg width="22" height="23" viewBox="0 0 22 23" fill="none" xmlns="http://www.w3.org/2000/svg">
<g id="users 1">
<path id="Vector" d="M15.5846 19.75V17.9167C15.5846 16.9442 15.1983 16.0116 14.5107 15.3239C13.8231 14.6363 12.8904 14.25 11.918 14.25H4.58464C3.61217 14.25 2.67954 14.6363 1.99191 15.3239C1.30428 16.0116 0.917969 16.9442 0.917969 17.9167V19.75" stroke="#DDDDDD" stroke-width="1.83333" stroke-linecap="round" stroke-linejoin="round"/>
<path id="Vector_2" d="M8.2487 10.5833C10.2737 10.5833 11.9154 8.94171 11.9154 6.91667C11.9154 4.89162 10.2737 3.25 8.2487 3.25C6.22365 3.25 4.58203 4.89162 4.58203 6.91667C4.58203 8.94171 6.22365 10.5833 8.2487 10.5833Z" stroke="#DDDDDD" stroke-width="1.83333" stroke-linecap="round" stroke-linejoin="round"/>
<path id="Vector_3" d="M21.082 19.75V17.9166C21.0814 17.1042 20.811 16.315 20.3133 15.6729C19.8155 15.0308 19.1187 14.5722 18.332 14.3691" stroke="#DDDDDD" stroke-width="1.83333" stroke-linecap="round" stroke-linejoin="round"/>
<path id="Vector_4" d="M14.668 3.36914C15.4567 3.57108 16.1558 4.02978 16.655 4.67293C17.1542 5.31607 17.4252 6.10707 17.4252 6.92122C17.4252 7.73538 17.1542 8.52638 16.655 9.16952C16.1558 9.81266 15.4567 10.2714 14.668 10.4733" stroke="#DDDDDD" stroke-width="1.83333" stroke-linecap="round" stroke-linejoin="round"/>
</g>
</svg>
