<svg width="24" height="24" viewBox="0 0 24 24" fill="none" xmlns="http://www.w3.org/2000/svg">
<g id="google">
<path id="Vector" d="M21.3512 11.1H12.1813V13.83H18.6912C18.3612 17.64 15.1912 19.27 12.1912 19.27C8.36125 19.27 5.00125 16.25 5.00125 12C5.00125 7.9 8.20125 4.73 12.2013 4.73C15.2913 4.73 17.1013 6.7 17.1013 6.7L19.0012 4.72C19.0012 4.72 16.5613 2 12.1013 2C6.42125 2 2.03125 6.8 2.03125 12C2.03125 17.05 6.16125 22 12.2513 22C17.6012 22 21.5012 18.33 21.5012 12.91C21.5012 11.76 21.3512 11.1 21.3512 11.1Z" fill="currentColor"/>
</g>
</svg>
