<svg width="33" height="33" viewBox="0 0 33 33" fill="none" xmlns="http://www.w3.org/2000/svg">
<g id="heart-outline">
<rect width="33" height="33" rx="16.5" fill="#433E40" fill-opacity="0.62"/>
<g id="Group 1000004545">
<path id="Vector" d="M16.5574 21.5395L16.4826 21.6152L16.4003 21.5395C12.846 18.2756 10.4965 16.1173 10.4965 13.9287C10.4965 12.4142 11.6189 11.2782 13.1154 11.2782C14.2677 11.2782 15.3901 12.0355 15.7867 13.0654H17.1784C17.575 12.0355 18.6974 11.2782 19.8497 11.2782C21.3462 11.2782 22.4686 12.4142 22.4686 13.9287C22.4686 16.1173 20.1191 18.2756 16.5574 21.5395ZM19.8497 9.76367C18.5477 9.76367 17.2982 10.3771 16.4826 11.3388C15.667 10.3771 14.4174 9.76367 13.1154 9.76367C10.8108 9.76367 9 11.5887 9 13.9287C9 16.7837 11.5441 19.1237 15.3976 22.6602L16.4826 23.6599L17.5675 22.6602C21.421 19.1237 23.9651 16.7837 23.9651 13.9287C23.9651 11.5887 22.1543 9.76367 19.8497 9.76367Z" fill="white"/>
<path id="Vector 66" d="M10.6907 20.9564L24.5576 8.99987" stroke="#888485" stroke-width="1.2"/>
<path id="Vector 65" d="M10.8137 22.1078L24.6806 10.1512" stroke="white" stroke-width="1.2"/>
</g>
</g>
</svg>
