<svg width="17" height="16" viewBox="0 0 17 16" fill="none" xmlns="http://www.w3.org/2000/svg">
<path d="M7.55738 13.5395L7.48256 13.6152L7.40025 13.5395C3.84604 10.2756 1.49651 8.11729 1.49651 5.92874C1.49651 4.41417 2.6189 3.27824 4.11541 3.27824C5.26772 3.27824 6.3901 4.03553 6.78668 5.06543H8.17844C8.57501 4.03553 9.6974 3.27824 10.8497 3.27824C12.3462 3.27824 13.4686 4.41417 13.4686 5.92874C13.4686 8.11729 11.1191 10.2756 7.55738 13.5395ZM10.8497 1.76367C9.54774 1.76367 8.29816 2.37707 7.48256 3.33882C6.66696 2.37707 5.41737 1.76367 4.11541 1.76367C1.81078 1.76367 0 3.58873 0 5.92874C0 8.7837 2.54407 11.1237 6.39759 14.6602L7.48256 15.6599L8.56753 14.6602C12.421 11.1237 14.9651 8.7837 14.9651 5.92874C14.9651 3.58873 13.1543 1.76367 10.8497 1.76367Z" fill="white"/>
<path d="M1.69263 12.9564L15.5595 0.999866" stroke="#888485" stroke-width="1.2"/>
<path d="M1.81372 14.1078L15.6806 2.15123" stroke="white" stroke-width="1.2"/>
</svg>
