<svg width="51" height="51" viewBox="0 0 51 51" fill="none" xmlns="http://www.w3.org/2000/svg">
<rect x="0.376953" y="0.795898" width="49.7634" height="49.7634" rx="24.8817" fill="#433E40" fill-opacity="0.45"/>
<path d="M25.0557 31.6618L24.9629 31.7557L24.8609 31.6618C20.4551 27.6158 17.5426 24.9404 17.5426 22.2275C17.5426 20.35 18.9339 18.9419 20.789 18.9419C22.2174 18.9419 23.6087 19.8807 24.1003 21.1573H25.8256C26.3171 19.8807 27.7085 18.9419 29.1369 18.9419C30.992 18.9419 32.3833 20.35 32.3833 22.2275C32.3833 24.9404 29.4708 27.6158 25.0557 31.6618ZM29.1369 17.0645C27.523 17.0645 25.974 17.8248 24.9629 19.017C23.9519 17.8248 22.4029 17.0645 20.789 17.0645C17.9322 17.0645 15.6875 19.3268 15.6875 22.2275C15.6875 25.7665 18.8411 28.6672 23.618 33.0511L24.9629 34.2903L26.3079 33.0511C31.0847 28.6672 34.2384 25.7665 34.2384 22.2275C34.2384 19.3268 31.9937 17.0645 29.1369 17.0645Z" fill="white"/>
</svg>
