<svg width="22" height="23" viewBox="0 0 22 23" fill="none" xmlns="http://www.w3.org/2000/svg">
<g id="key">
<path id="Vector" d="M19.2488 2.3335L17.4155 4.16683M17.4155 4.16683L20.1655 6.91683L16.9571 10.1252L14.2071 7.37516M17.4155 4.16683L14.2071 7.37516M10.4396 11.1427C10.9129 11.6097 11.2892 12.1657 11.5467 12.7787C11.8043 13.3917 11.938 14.0497 11.9402 14.7146C11.9425 15.3795 11.8131 16.0383 11.5597 16.653C11.3063 17.2678 10.9338 17.8263 10.4636 18.2965C9.99341 18.7666 9.43488 19.1392 8.82015 19.3926C8.20541 19.646 7.54662 19.7753 6.8817 19.7731C6.21678 19.7709 5.55887 19.6371 4.94584 19.3796C4.33282 19.1221 3.7768 18.7458 3.30979 18.2725C2.39141 17.3216 1.88323 16.0481 1.89472 14.7262C1.90621 13.4043 2.43644 12.1398 3.3712 11.205C4.30597 10.2702 5.57048 9.74 6.89239 9.72851C8.2143 9.71703 9.48783 10.2252 10.4387 11.1436L10.4396 11.1427ZM10.4396 11.1427L14.2071 7.37516" stroke="#433E40" stroke-width="2" stroke-linecap="round" stroke-linejoin="round"/>
</g>
</svg>
