<svg width="29" height="24" viewBox="0 0 29 24" fill="none" xmlns="http://www.w3.org/2000/svg">
<path d="M12.188 23.178C6.16604 23.2756 1.68802 19.9768 0.327019 14.906C-0.724981 10.9706 0.847028 7.55863 3.81103 4.98127C6.00189 2.98742 8.70029 1.60351 11.6251 0.973697C14.55 0.343884 17.5943 0.491174 20.441 1.40028C26.971 3.31279 29.898 8.03894 27.733 14.5536C26.354 18.7115 22.733 21.3767 18.296 22.599C16.9665 23.0658 15.5532 23.2625 14.143 23.177C13.8744 22.9418 13.5263 22.8117 13.1655 22.8117C12.8047 22.8117 12.4566 22.9428 12.188 23.178ZM22.388 7.47951C22.42 7.43753 22.488 7.38188 22.478 7.35748C22.4394 7.27165 22.3925 7.18963 22.338 7.11245C17.558 2.76024 9.17904 4.82601 5.86904 9.20556C4.65504 10.8135 5.03602 11.7439 7.08102 11.7624C9.52602 11.7781 12.057 11.7625 13.83 9.59514C14.3135 9.14748 14.8804 8.79452 15.5 8.55541C17.676 7.35753 20.145 8.13948 22.388 7.48148M5.60003 15.7974C8.58603 19.1274 12.1 19.2905 15.675 18.7711C17.2395 18.5536 18.7345 17.9979 20.051 17.1447C21.3675 16.2914 22.4724 15.1621 23.285 13.839C23.905 12.8861 23.985 12.4078 22.612 12.1452C19.962 11.6375 17.595 11.78 15.566 13.8194C14.2589 15.082 12.4938 15.7893 10.655 15.7876C9.12502 15.8364 7.59204 15.7974 5.60104 15.7974" fill="#232222"/>
</svg>
