<svg width="232" height="56" viewBox="0 0 232 56" fill="none" xmlns="http://www.w3.org/2000/svg">
<g id="Group 1000004540">
<g id="Un grain dans la bo&#195;&#174;te">
<path d="M76.8738 2.76904V15.1083C76.8738 16.8685 77.1634 18.1555 77.7426 18.9693C78.6068 20.1457 79.823 20.7339 81.3912 20.7339C82.9683 20.7339 84.1889 20.1457 85.0532 18.9693C85.6323 18.182 85.9219 16.895 85.9219 15.1083V2.76904H89.0359V15.9574C89.0359 18.1157 88.3588 19.8936 87.0045 21.2912C85.4809 22.8479 83.6098 23.6263 81.3912 23.6263C79.1726 23.6263 77.306 22.8479 75.7913 21.2912C74.437 19.8936 73.7598 18.1157 73.7598 15.9574V2.76904H76.8738Z" fill="white"/>
<path d="M93.6068 10.3318H96.6272V11.5259C97.6786 10.491 98.8636 9.97357 100.182 9.97357C101.697 9.97357 102.878 10.4468 103.724 11.3932C104.455 12.1982 104.82 13.5117 104.82 15.3338V23.2548H101.799V16.037C101.799 14.7633 101.621 13.8832 101.265 13.3967C100.917 12.9014 100.285 12.6537 99.3671 12.6537C98.3691 12.6537 97.6608 12.981 97.242 13.6355C96.8322 14.2812 96.6272 15.409 96.6272 17.0189V23.2548H93.6068V10.3318Z" fill="white"/>
<path d="M129.665 22.9497C129.665 23.56 129.643 24.0951 129.599 24.5551C129.563 25.0239 129.51 25.4352 129.438 25.789C129.224 26.762 128.806 27.5979 128.182 28.2967C127.006 29.6412 125.389 30.3134 123.33 30.3134C121.593 30.3134 120.163 29.849 119.04 28.9203C117.882 27.965 117.214 26.6426 117.036 24.9531H120.056C120.172 25.59 120.363 26.0809 120.631 26.4259C121.254 27.2308 122.163 27.6333 123.357 27.6333C125.558 27.6333 126.658 26.2932 126.658 23.6131V21.8086C125.464 23.0204 124.088 23.6263 122.529 23.6263C120.755 23.6263 119.303 22.9895 118.172 21.7157C117.031 20.4243 116.461 18.8101 116.461 16.8729C116.461 14.9889 116.991 13.3879 118.051 12.0699C119.192 10.6723 120.698 9.97357 122.569 9.97357C124.208 9.97357 125.571 10.5795 126.658 11.7913V10.3318H129.665V22.9497ZM126.779 16.8199C126.779 15.5638 126.44 14.5599 125.763 13.808C125.077 13.0385 124.199 12.6537 123.13 12.6537C121.989 12.6537 121.09 13.0739 120.43 13.9142C119.833 14.666 119.535 15.639 119.535 16.8331C119.535 18.0095 119.833 18.9737 120.43 19.7255C121.081 20.5482 121.981 20.9595 123.13 20.9595C124.279 20.9595 125.188 20.5437 125.856 19.7123C126.471 18.9604 126.779 17.9963 126.779 16.8199Z" fill="white"/>
<path d="M133.461 10.3318H136.468V11.4861C137.021 10.9112 137.511 10.5176 137.938 10.3053C138.375 10.0841 138.892 9.97357 139.489 9.97357C140.282 9.97357 141.11 10.2301 141.975 10.7431L140.598 13.4763C140.028 13.0694 139.471 12.866 138.927 12.866C137.288 12.866 136.468 14.0955 136.468 16.5545V23.2548H133.461V10.3318Z" fill="white"/>
<path d="M153.108 10.3318H156.128V23.2548H153.108V21.9015C151.869 23.0514 150.537 23.6263 149.111 23.6263C147.312 23.6263 145.824 22.9806 144.648 21.6892C143.48 20.3713 142.897 18.726 142.897 16.7535C142.897 14.8164 143.48 13.2021 144.648 11.9107C145.815 10.6193 147.276 9.97357 149.031 9.97357C150.546 9.97357 151.905 10.5927 153.108 11.8311V10.3318ZM145.971 16.7535C145.971 17.9919 146.305 19.0002 146.973 19.7786C147.659 20.5658 148.523 20.9595 149.566 20.9595C150.68 20.9595 151.58 20.5791 152.266 19.8184C152.952 19.0312 153.295 18.0317 153.295 16.8199C153.295 15.608 152.952 14.6085 152.266 13.8213C151.58 13.0517 150.689 12.667 149.593 12.667C148.559 12.667 147.695 13.0562 147 13.8346C146.314 14.6218 145.971 15.5948 145.971 16.7535Z" fill="white"/>
<path d="M162.931 10.3318V23.2548H159.924V10.3318H162.931ZM159.469 4.95826C159.469 4.43639 159.661 3.98528 160.044 3.60493C160.427 3.22458 160.886 3.0344 161.421 3.0344C161.964 3.0344 162.427 3.22458 162.811 3.60493C163.194 3.97643 163.385 4.43197 163.385 4.97153C163.385 5.5111 163.194 5.97105 162.811 6.3514C162.436 6.73175 161.977 6.92193 161.434 6.92193C160.89 6.92193 160.427 6.73175 160.044 6.3514C159.661 5.97105 159.469 5.50667 159.469 4.95826Z" fill="white"/>
<path d="M166.74 10.3318H169.76V11.5259C170.812 10.491 171.997 9.97357 173.315 9.97357C174.83 9.97357 176.011 10.4468 176.857 11.3932C177.588 12.1982 177.953 13.5117 177.953 15.3338V23.2548H174.933V16.037C174.933 14.7633 174.754 13.8832 174.398 13.3967C174.05 12.9014 173.418 12.6537 172.5 12.6537C171.502 12.6537 170.794 12.981 170.375 13.6355C169.965 14.2812 169.76 15.409 169.76 17.0189V23.2548H166.74V10.3318Z" fill="white"/>
<path d="M82.7811 31.4146H85.8016V53.8243H82.7811V52.471C81.5961 53.6208 80.2552 54.1958 78.7583 54.1958C76.9763 54.1958 75.4972 53.5501 74.3211 52.2587C73.1539 50.9407 72.5703 49.2955 72.5703 47.323C72.5703 45.3947 73.1539 43.7848 74.3211 42.4934C75.4794 41.1932 76.9362 40.543 78.6915 40.543C80.2151 40.543 81.5783 41.1622 82.7811 42.4005V31.4146ZM75.6443 47.323C75.6443 48.5613 75.9784 49.5697 76.6466 50.3481C77.3327 51.1353 78.197 51.5289 79.2394 51.5289C80.3532 51.5289 81.2531 51.1486 81.9391 50.3879C82.6252 49.6006 82.9683 48.6011 82.9683 47.3893C82.9683 46.1775 82.6252 45.178 81.9391 44.3907C81.2531 43.6212 80.3621 43.2364 79.2662 43.2364C78.2326 43.2364 77.3683 43.6256 76.6734 44.404C75.9873 45.1912 75.6443 46.1642 75.6443 47.323Z" fill="white"/>
<path d="M99.1933 40.9013H102.214V53.8243H99.1933V52.471C97.9548 53.6208 96.6228 54.1958 95.1972 54.1958C93.3974 54.1958 91.9094 53.5501 90.7333 52.2587C89.5661 50.9407 88.9825 49.2955 88.9825 47.323C88.9825 45.3858 89.5661 43.7716 90.7333 42.4802C91.9005 41.1887 93.3617 40.543 95.117 40.543C96.6317 40.543 97.9905 41.1622 99.1933 42.4005V40.9013ZM92.0564 47.323C92.0564 48.5613 92.3905 49.5697 93.0588 50.3481C93.7449 51.1353 94.6091 51.5289 95.6516 51.5289C96.7653 51.5289 97.6653 51.1486 98.3513 50.3879C99.0374 49.6006 99.3804 48.6011 99.3804 47.3893C99.3804 46.1775 99.0374 45.178 98.3513 44.3907C97.6653 43.6212 96.7743 43.2364 95.6783 43.2364C94.6448 43.2364 93.7805 43.6256 93.0855 44.404C92.3995 45.1912 92.0564 46.1642 92.0564 47.323Z" fill="white"/>
<path d="M106.009 40.9013H109.03V42.0954C110.081 41.0605 111.266 40.543 112.585 40.543C114.1 40.543 115.28 41.0163 116.127 41.9627C116.857 42.7676 117.223 44.0812 117.223 45.9033V53.8243H114.202V46.6065C114.202 45.3328 114.024 44.4527 113.668 43.9662C113.32 43.4708 112.687 43.2232 111.77 43.2232C110.772 43.2232 110.063 43.5504 109.645 44.205C109.235 44.8507 109.03 45.9785 109.03 47.5883V53.8243H106.009V40.9013Z" fill="white"/>
<path d="M128.596 43.1038L126.11 44.4173C125.718 43.6212 125.233 43.2232 124.654 43.2232C124.377 43.2232 124.141 43.316 123.945 43.5018C123.749 43.6787 123.651 43.9087 123.651 44.1917C123.651 44.6871 124.23 45.178 125.389 45.6645C126.984 46.3456 128.057 46.9736 128.61 47.5485C129.162 48.1235 129.438 48.8974 129.438 49.8704C129.438 51.1176 128.975 52.1614 128.048 53.0017C127.148 53.7978 126.061 54.1958 124.787 54.1958C122.604 54.1958 121.058 53.1388 120.15 51.0247L122.716 49.8439C123.072 50.4631 123.344 50.8567 123.531 51.0247C123.896 51.3609 124.333 51.5289 124.841 51.5289C125.856 51.5289 126.364 51.069 126.364 50.1491C126.364 49.6183 125.972 49.123 125.188 48.663C124.885 48.5127 124.582 48.3667 124.279 48.2252C123.976 48.0837 123.669 47.9377 123.357 47.7874C122.484 47.3628 121.869 46.9382 121.513 46.5136C121.058 45.9741 120.831 45.2797 120.831 44.4305C120.831 43.3072 121.219 42.3784 121.994 41.6443C122.787 40.9101 123.749 40.543 124.881 40.543C126.547 40.543 127.785 41.3966 128.596 43.1038Z" fill="white"/>
<path d="M143.605 31.4146V53.8243H140.598V31.4146H143.605Z" fill="white"/>
<path d="M157.01 40.9013H160.031V53.8243H157.01V52.471C155.772 53.6208 154.44 54.1958 153.014 54.1958C151.214 54.1958 149.726 53.5501 148.55 52.2587C147.383 50.9407 146.799 49.2955 146.799 47.323C146.799 45.3858 147.383 43.7716 148.55 42.4802C149.717 41.1887 151.179 40.543 152.934 40.543C154.449 40.543 155.807 41.1622 157.01 42.4005V40.9013ZM149.873 47.323C149.873 48.5613 150.207 49.5697 150.876 50.3481C151.562 51.1353 152.426 51.5289 153.468 51.5289C154.582 51.5289 155.482 51.1486 156.168 50.3879C156.854 49.6006 157.197 48.6011 157.197 47.3893C157.197 46.1775 156.854 45.178 156.168 44.3907C155.482 43.6212 154.591 43.2364 153.495 43.2364C152.462 43.2364 151.597 43.6256 150.902 44.404C150.216 45.1912 149.873 46.1642 149.873 47.323Z" fill="white"/>
<path d="M175.28 31.4146V42.4005C176.483 41.1622 177.846 40.543 179.37 40.543C181.125 40.543 182.586 41.1932 183.753 42.4934C184.921 43.7848 185.504 45.3947 185.504 47.323C185.504 49.3132 184.916 50.9584 183.74 52.2587C182.573 53.5501 181.098 54.1958 179.316 54.1958C177.81 54.1958 176.465 53.6208 175.28 52.471V53.8243H172.273V31.4146H175.28ZM182.43 47.4557C182.43 46.2173 182.092 45.2089 181.415 44.4305C180.728 43.6345 179.869 43.2364 178.835 43.2364C177.73 43.2364 176.83 43.6212 176.135 44.3907C175.449 45.1514 175.106 46.1421 175.106 47.3628C175.106 48.6188 175.445 49.6228 176.122 50.3746C176.799 51.1442 177.69 51.5289 178.795 51.5289C179.837 51.5289 180.702 51.1442 181.388 50.3746C182.083 49.5962 182.43 48.6232 182.43 47.4557Z" fill="white"/>
<path d="M188.07 47.2699C188.07 45.4035 188.743 43.8158 190.088 42.5067C191.434 41.1976 193.073 40.543 195.007 40.543C196.949 40.543 198.597 41.202 199.952 42.52C201.288 43.8379 201.956 45.4566 201.956 47.376C201.956 49.3132 201.284 50.9363 199.938 52.2454C198.584 53.5457 196.922 54.1958 194.953 54.1958C193.002 54.1958 191.367 53.5324 190.048 52.2056C188.73 50.8965 188.07 49.2513 188.07 47.2699ZM191.144 47.323C191.144 48.6144 191.492 49.636 192.187 50.3879C192.9 51.1486 193.84 51.5289 195.007 51.5289C196.183 51.5289 197.123 51.153 197.827 50.4011C198.531 49.6493 198.883 48.6454 198.883 47.3893C198.883 46.1333 198.531 45.1293 197.827 44.3775C197.114 43.6168 196.174 43.2364 195.007 43.2364C193.857 43.2364 192.926 43.6168 192.213 44.3775C191.501 45.1382 191.144 46.12 191.144 47.323Z" fill="white"/>
<path d="M208.158 40.9013V53.8243H205.151V40.9013H208.158ZM202.157 37.3322L206.634 33.0731L211.178 37.3322L209.12 38.9111L206.634 36.3901L204.175 38.9111L202.157 37.3322Z" fill="white"/>
<path d="M215.068 43.6875V53.8243H212.06V43.6875H210.777V40.9013H212.06V36.1646H215.068V40.9013H217.406V43.6875H215.068Z" fill="white"/>
<path d="M231.547 48.066H222.218C222.298 49.1274 222.645 49.9722 223.26 50.6002C223.875 51.2193 224.664 51.5289 225.626 51.5289C226.374 51.5289 226.994 51.352 227.484 50.9982C227.965 50.6444 228.513 49.9898 229.127 49.0345L231.667 50.441C231.275 51.1044 230.86 51.6749 230.424 52.1525C229.987 52.6213 229.52 53.0105 229.021 53.3201C228.522 53.6208 227.983 53.842 227.403 53.9835C226.824 54.125 226.196 54.1958 225.519 54.1958C223.577 54.1958 222.017 53.5766 220.841 52.3383C219.665 51.0911 219.077 49.437 219.077 47.376C219.077 45.3328 219.647 43.6787 220.788 42.4138C221.937 41.1666 223.461 40.543 225.359 40.543C227.274 40.543 228.789 41.1489 229.903 42.3607C231.007 43.5637 231.56 45.2311 231.56 47.3628L231.547 48.066ZM228.459 45.6247C228.04 44.0325 227.029 43.2364 225.425 43.2364C225.06 43.2364 224.717 43.2939 224.396 43.4089C224.076 43.5151 223.781 43.6743 223.514 43.8866C223.256 44.09 223.033 44.3377 222.846 44.6296C222.659 44.9215 222.516 45.2532 222.418 45.6247H228.459Z" fill="white"/>
</g>
<g id="Group 1000004539">
<path id="Vector" d="M39.104 11.6253C39.6851 13.8453 39.828 16.1075 39.9065 18.387C39.9685 20.1933 40.2355 21.9723 41.3622 23.4846C42.9859 25.6648 47.2603 25.4849 49.2318 23.1202C49.2405 23.1101 49.2491 23.0983 49.2562 23.0866C49.6856 22.4079 50.0288 21.7643 50.1355 21.0003C50.5054 18.3518 49.8694 15.887 48.7474 13.5286C47.499 10.9035 45.6146 8.74607 43.5512 6.73172C40.3776 3.63356 36.6143 1.53084 32.3878 0.256228C31.2736 -0.0800189 30.0653 -0.0651614 28.992 0.445465C27.1979 1.29859 25.8804 2.69128 24.884 4.39989C23.0742 7.50274 22.5238 10.9145 22.5002 14.4255C22.4783 17.7184 22.6785 21.0097 22.7594 24.3018C22.9454 31.8548 23.3993 39.4024 23.2532 46.9609C23.2179 48.808 22.9855 50.6589 22.2749 52.3878C21.3649 54.6031 19.6352 55.5329 17.3881 54.2567C15.1566 52.9891 13.8077 50.981 12.8773 48.6719C11.2206 44.5579 10.7629 40.2094 10.6333 35.8405C10.5124 31.7462 10.4551 27.6471 10.5572 23.5456C10.6632 19.3089 10.8854 15.1051 11.8362 10.9504C12.8797 6.39391 14.947 2.64515 19.3824 0.573708C19.4122 0.559632 19.4436 0.547121 19.475 0.534609C19.8079 0.404802 19.6242 -0.0980042 19.285 0.0169454C19.2222 0.0380586 19.1602 0.0607357 19.0982 0.0763751C16.2198 0.818464 13.5031 1.94919 10.9749 3.50844C8.26765 5.17873 5.94671 7.26346 4.27354 9.99644C1.55453 14.4419 0.40191 19.373 0.112971 24.4848C-0.205805 30.122 0.0690015 35.7342 1.99579 41.1392C3.26539 44.7003 5.07597 47.8977 7.99677 50.4063C10.6004 52.642 13.6067 54.1715 16.7458 55.443C19.0989 56.3962 21.3029 56.1804 23.327 54.3724C25.9856 51.9976 27.0071 48.8924 27.5237 45.5714C27.8935 43.1926 27.7695 40.7756 27.7239 38.3624C27.6321 33.4587 27.3777 28.5612 27.3046 23.6575C27.2316 18.7576 26.7731 13.8609 27.2136 8.95955C27.3957 6.93425 27.5221 4.8675 28.5059 3.03613C29.5902 1.01865 31.4943 0.620626 33.3543 2.10168C36.4439 4.56175 38.1249 7.88278 39.1033 11.6245L39.104 11.6253Z" fill="white"/>
<path id="Vector_2" d="M48.8176 33.4656C48.7477 33.3975 48.6778 33.3295 48.6079 33.2623C48.5467 33.2036 48.4854 33.1458 48.4234 33.0887C48.2719 32.9471 48.1188 32.8087 47.9633 32.6734C47.924 32.639 47.884 32.6054 47.844 32.571C47.7175 32.4623 47.5896 32.3552 47.46 32.2512C47.4184 32.2168 47.3768 32.1831 47.3344 32.1503C47.2606 32.0909 47.186 32.0322 47.1106 31.9751C47.0486 31.9267 46.9858 31.879 46.923 31.8328C46.9065 31.8195 46.8892 31.807 46.8719 31.7945C46.8193 31.7546 46.7651 31.7155 46.7118 31.678C46.678 31.653 46.6442 31.6287 46.6105 31.6053C46.5508 31.5615 46.4896 31.5193 46.4291 31.477C46.3639 31.4325 46.2995 31.3871 46.2328 31.3449C46.1888 31.3136 46.1433 31.2839 46.0978 31.2542C46.086 31.2463 46.0734 31.2377 46.0609 31.2299C44.6138 30.2877 43.0027 29.5698 41.1779 29.1389C38.0428 28.3984 35.6928 29.494 34.6124 32.4381C33.7283 34.8497 34.5747 37.1416 36.8164 38.2935C37.377 38.582 37.9596 38.8283 38.5602 39.0183C39.3242 39.2608 39.8243 39.9942 39.7435 40.7887C39.5707 42.4919 39.2464 44.1731 38.7227 45.834C37.4955 49.7251 35.3858 52.9351 31.8573 55.1175C31.8094 55.1473 31.7592 55.1746 31.7089 55.2043C31.4317 55.3717 31.6202 55.7963 31.9319 55.7048C34.9194 54.829 37.6479 53.5036 40.2789 51.8254C41.9819 50.7299 43.4792 49.4616 44.8376 48.0603C46.5312 46.3118 47.9429 44.4225 48.9008 42.3026C48.9432 42.2096 48.984 42.1165 49.0241 42.0227C49.0264 42.0164 49.0295 42.0109 49.0319 42.0047C49.0696 41.9171 49.1065 41.828 49.1426 41.7396C49.1811 41.645 49.2188 41.5496 49.2549 41.4534C49.2918 41.358 49.3279 41.261 49.3625 41.1649C49.397 41.0702 49.43 40.9748 49.4622 40.8794C49.4645 40.8724 49.4669 40.8661 49.4685 40.8599C49.4999 40.766 49.5305 40.6722 49.5603 40.5784C49.5917 40.4798 49.6216 40.3805 49.6506 40.2804C49.6789 40.1843 49.7064 40.0873 49.733 39.9896C49.7338 39.9864 49.7346 39.9833 49.7354 39.9802C49.7597 39.8902 49.7833 39.8003 49.8061 39.7088C49.8335 39.597 49.8602 39.4836 49.8862 39.3702C49.8979 39.3186 49.9089 39.2678 49.9199 39.2162C49.9262 39.1888 49.9317 39.1614 49.9372 39.1349C49.9458 39.0942 49.9545 39.0528 49.9623 39.0113C49.9733 38.9566 49.9843 38.9018 49.9945 38.8463C50.0707 38.4444 50.1303 38.0346 50.1743 37.6171C50.1798 37.5654 50.1853 37.5146 50.19 37.4638C50.201 37.3543 50.2104 37.2441 50.2183 37.1338C50.2191 37.1252 50.2199 37.1166 50.2199 37.108C50.3164 35.7544 49.7943 34.4337 48.8293 33.4781C48.8254 33.4742 48.8207 33.4695 48.8168 33.4656H48.8176Z" fill="white"/>
</g>
</g>
</svg>
