<svg width="82" height="91" viewBox="0 0 82 91" fill="none" xmlns="http://www.w3.org/2000/svg">
<path d="M63.3653 18.7186C64.297 22.2932 64.5262 25.9357 64.6521 29.606C64.7515 32.5145 65.1796 35.379 66.9864 37.814C69.5903 41.3244 76.4448 41.0348 79.6064 37.2273C79.6202 37.2109 79.6341 37.1921 79.6454 37.1732C80.3341 36.0803 80.8844 35.044 81.0556 33.8139C81.6486 29.5493 80.6288 25.5807 78.8295 21.7832C76.8275 17.5564 73.8057 14.0826 70.4968 10.8392C65.4075 5.85061 59.3727 2.4649 52.595 0.412569C50.8083 -0.128843 48.8705 -0.10492 47.1494 0.71727C44.2723 2.09095 42.1596 4.3334 40.5618 7.08452C37.6595 12.0806 36.7769 17.5741 36.7391 23.2274C36.7039 28.5295 37.025 33.829 37.1546 39.1298C37.4531 51.2914 38.1808 63.4442 37.9466 75.6147C37.89 78.5887 37.5173 81.5689 36.3778 84.3528C34.9185 87.9198 32.1447 89.4169 28.5412 87.362C24.9628 85.3211 22.7997 82.0877 21.3077 78.3696C18.651 71.7455 17.9169 64.7436 17.7092 57.709C17.5153 51.1164 17.4233 44.5162 17.587 37.9123C17.757 31.0905 18.1133 24.3216 19.6381 17.632C21.3114 10.2952 24.6266 4.25911 31.7393 0.923762C31.7871 0.901098 31.8375 0.880953 31.8878 0.860807C32.4217 0.651797 32.1271 -0.157802 31.5831 0.0272848C31.4824 0.0612805 31.3829 0.0977943 31.2835 0.122976C26.6676 1.31786 22.3112 3.13851 18.2569 5.64915C13.9155 8.33858 10.1936 11.6953 7.51047 16.0959C3.15021 23.2538 1.30186 31.1937 0.83851 39.4244C0.327317 48.5013 0.768001 57.5378 3.85783 66.2407C5.89379 71.9746 8.79726 77.1231 13.4811 81.1623C17.6563 84.762 22.4774 87.2248 27.5112 89.2721C31.2847 90.8069 34.819 90.4594 38.065 87.5484C42.3283 83.7245 43.9664 78.7246 44.7948 73.3773C45.3879 69.5471 45.1889 65.6552 45.1159 61.7696C44.9686 53.8738 44.5607 45.9881 44.4436 38.0923C44.3265 30.2028 43.5912 22.3183 44.2975 14.4263C44.5896 11.1653 44.7923 7.83746 46.37 4.88866C48.1088 1.64019 51.1621 0.999308 54.1449 3.38404C59.0995 7.34516 61.7952 12.6925 63.364 18.7173L63.3653 18.7186Z" fill="white"/>
<path d="M78.9441 53.8852C78.832 53.7756 78.72 53.6661 78.6079 53.5578C78.5097 53.4634 78.4115 53.3702 78.312 53.2783C78.069 53.0504 77.8235 52.8275 77.5742 52.6097C77.5112 52.5543 77.447 52.5002 77.3828 52.4448C77.1801 52.2698 76.9748 52.0973 76.7671 51.9298C76.7004 51.8744 76.6336 51.8203 76.5656 51.7674C76.4473 51.6717 76.3277 51.5773 76.2068 51.4853C76.1073 51.4073 76.0066 51.3305 75.9059 51.2562C75.8794 51.2348 75.8517 51.2146 75.824 51.1945C75.7397 51.1303 75.6528 51.0673 75.5672 51.0069C75.513 50.9666 75.4589 50.9276 75.4048 50.8898C75.3091 50.8193 75.2108 50.7513 75.1139 50.6833C75.0094 50.6115 74.9061 50.5385 74.7991 50.4705C74.7286 50.4201 74.6556 50.3723 74.5826 50.3245C74.5637 50.3119 74.5435 50.298 74.5234 50.2854C72.2029 48.7682 69.6192 47.6124 66.6931 46.9186C61.6655 45.7262 57.897 47.4902 56.1645 52.2307C54.7467 56.1138 56.1041 59.8042 59.6988 61.6588C60.5978 62.1234 61.532 62.5201 62.4952 62.826C63.7203 63.2163 64.5224 64.3974 64.3927 65.6766C64.1157 68.4189 63.5957 71.126 62.7559 73.8003C60.7879 80.0656 57.4047 85.2342 51.7463 88.7483C51.6695 88.7962 51.5889 88.8402 51.5083 88.8881C51.0639 89.1575 51.3661 89.8412 51.8659 89.6939C56.6568 88.2837 61.0322 86.1495 65.2514 83.4475C67.9824 81.6835 70.3835 79.6413 72.5617 77.385C75.2776 74.5696 77.5414 71.5276 79.0775 68.1142C79.1455 67.9644 79.211 67.8146 79.2752 67.6635C79.279 67.6534 79.284 67.6446 79.2878 67.6345C79.3482 67.4935 79.4074 67.35 79.4653 67.2077C79.527 67.0553 79.5875 66.9017 79.6454 66.7468C79.7046 66.5932 79.7625 66.4371 79.8179 66.2822C79.8733 66.1299 79.9262 65.9763 79.9778 65.8227C79.9816 65.8113 79.9853 65.8013 79.9879 65.7912C80.0382 65.6401 80.0873 65.489 80.1352 65.3379C80.1855 65.1793 80.2334 65.0194 80.28 64.8582C80.3253 64.7033 80.3694 64.5472 80.4122 64.3898C80.4134 64.3848 80.4147 64.3798 80.416 64.3747C80.455 64.2299 80.4928 64.0851 80.5293 63.9378C80.5733 63.7578 80.6162 63.5752 80.6577 63.3926C80.6766 63.3095 80.6942 63.2277 80.7118 63.1446C80.7219 63.1005 80.7307 63.0564 80.7396 63.0136C80.7534 62.9482 80.7672 62.8814 80.7798 62.8147C80.7975 62.7266 80.8151 62.6384 80.8315 62.549C80.9536 61.9018 81.0493 61.2421 81.1198 60.5697C81.1286 60.4866 81.1374 60.4048 81.145 60.3229C81.1626 60.1467 81.1777 59.9691 81.1903 59.7916C81.1916 59.7777 81.1928 59.7639 81.1928 59.75C81.3477 57.5706 80.5104 55.4439 78.963 53.9053C78.9567 53.899 78.9491 53.8915 78.9428 53.8852H78.9441Z" fill="white"/>
</svg>
