<svg width="22" height="23" viewBox="0 0 22 23" fill="none" xmlns="http://www.w3.org/2000/svg">
<g id="map-pin" clip-path="url(#clip0_1089_889)">
<path id="Vector" d="M19.25 9.6665C19.25 16.0832 11 21.5832 11 21.5832C11 21.5832 2.75 16.0832 2.75 9.6665C2.75 7.47847 3.61919 5.38005 5.16637 3.83287C6.71354 2.2857 8.81196 1.4165 11 1.4165C13.188 1.4165 15.2865 2.2857 16.8336 3.83287C18.3808 5.38005 19.25 7.47847 19.25 9.6665Z" stroke="#433E40" stroke-width="2" stroke-linecap="round" stroke-linejoin="round"/>
<path id="Vector_2" d="M11 12.4165C12.5188 12.4165 13.75 11.1853 13.75 9.6665C13.75 8.14772 12.5188 6.9165 11 6.9165C9.48122 6.9165 8.25 8.14772 8.25 9.6665C8.25 11.1853 9.48122 12.4165 11 12.4165Z" stroke="#433E40" stroke-width="2" stroke-linecap="round" stroke-linejoin="round"/>
</g>
<defs>
<clipPath id="clip0_1089_889">
<rect width="22" height="22" fill="white" transform="translate(0 0.5)"/>
</clipPath>
</defs>
</svg>
