<svg width="141" height="35" viewBox="0 0 141 35" fill="none" xmlns="http://www.w3.org/2000/svg">
<g id="Group 1000004540">
<g id="Un grain dans la bo&#195;&#174;te">
<path d="M46.7872 1.68457V9.19463C46.7872 10.266 46.9635 11.0493 47.316 11.5446C47.842 12.2606 48.5822 12.6186 49.5366 12.6186C50.4965 12.6186 51.2394 12.2606 51.7655 11.5446C52.1179 11.0654 52.2942 10.2821 52.2942 9.19463V1.68457H54.1895V9.71145C54.1895 11.025 53.7773 12.1071 52.9531 12.9577C52.0258 13.9052 50.8869 14.379 49.5366 14.379C48.1863 14.379 47.0502 13.9052 46.1283 12.9577C45.3041 12.1071 44.8919 11.025 44.8919 9.71145V1.68457H46.7872Z" fill="#433E40"/>
<path d="M56.9714 6.28751H58.8098V7.01429C59.4497 6.38442 60.171 6.06948 60.9735 6.06948C61.8954 6.06948 62.614 6.3575 63.1291 6.93354C63.5738 7.42344 63.7962 8.2229 63.7962 9.33191V14.1529H61.9578V9.75991C61.9578 8.98467 61.8493 8.44901 61.6324 8.15291C61.4209 7.85143 61.0359 7.70069 60.4773 7.70069C59.87 7.70069 59.4389 7.89989 59.184 8.29827C58.9345 8.69127 58.8098 9.37767 58.8098 10.3575V14.1529H56.9714V6.28751Z" fill="#433E40"/>
<path d="M78.9179 13.9672C78.9179 14.3386 78.9044 14.6643 78.8772 14.9443C78.8556 15.2296 78.823 15.4799 78.7796 15.6953C78.6495 16.2875 78.3946 16.7962 78.015 17.2215C77.2992 18.0398 76.3149 18.449 75.0622 18.449C74.0048 18.449 73.1344 18.1663 72.4511 17.6011C71.7461 17.0196 71.3394 16.2148 71.231 15.1865H73.0693C73.1398 15.5741 73.2564 15.8729 73.4191 16.0829C73.7987 16.5728 74.3518 16.8177 75.0785 16.8177C76.418 16.8177 77.0877 16.0021 77.0877 14.3709V13.2727C76.361 14.0102 75.5232 14.379 74.5742 14.379C73.495 14.379 72.6111 13.9914 71.9224 13.2161C71.2282 12.4301 70.8812 11.4477 70.8812 10.2687C70.8812 9.12195 71.2038 8.14753 71.8492 7.34538C72.5433 6.49478 73.4598 6.06948 74.5986 6.06948C75.5964 6.06948 76.4261 6.43825 77.0877 7.1758V6.28751H78.9179V13.9672ZM77.1609 10.2364C77.1609 9.47189 76.9548 8.86085 76.5427 8.40325C76.1251 7.93488 75.591 7.70069 74.9402 7.70069C74.2461 7.70069 73.6984 7.95641 73.2971 8.46785C72.9337 8.92545 72.7521 9.51765 72.7521 10.2444C72.7521 10.9604 72.9337 11.5472 73.2971 12.0048C73.693 12.5055 74.2407 12.7559 74.9402 12.7559C75.6398 12.7559 76.1929 12.5028 76.5996 11.9968C76.9738 11.5392 77.1609 10.9524 77.1609 10.2364Z" fill="#433E40"/>
<path d="M81.2281 6.28751H83.0583V6.99007C83.3945 6.64013 83.6928 6.40057 83.9531 6.27136C84.2188 6.13677 84.5333 6.06948 84.8967 6.06948C85.3793 6.06948 85.8836 6.2256 86.4097 6.53785L85.5718 8.20137C85.2248 7.95372 84.8858 7.8299 84.555 7.8299C83.5572 7.8299 83.0583 8.57821 83.0583 10.0748V14.1529H81.2281V6.28751Z" fill="#433E40"/>
<path d="M93.1856 6.28751H95.0239V14.1529H93.1856V13.3292C92.4318 14.0291 91.6211 14.379 90.7534 14.379C89.658 14.379 88.7524 13.986 88.0365 13.2C87.3261 12.3978 86.9709 11.3965 86.9709 10.196C86.9709 9.01697 87.3261 8.03448 88.0365 7.24848C88.7469 6.46248 89.6363 6.06948 90.7046 6.06948C91.6265 6.06948 92.4535 6.44633 93.1856 7.20002V6.28751ZM88.8418 10.196C88.8418 10.9497 89.0452 11.5634 89.4519 12.0371C89.8695 12.5163 90.3955 12.7559 91.03 12.7559C91.7078 12.7559 92.2555 12.5244 92.6731 12.0614C93.0907 11.5822 93.2995 10.9739 93.2995 10.2364C93.2995 9.4988 93.0907 8.89046 92.6731 8.41132C92.2555 7.94295 91.7133 7.70877 91.0462 7.70877C90.4172 7.70877 89.8912 7.94565 89.4682 8.4194C89.0506 8.89854 88.8418 9.49073 88.8418 10.196Z" fill="#433E40"/>
<path d="M99.1643 6.28751V14.1529H97.3341V6.28751H99.1643ZM97.0575 3.017C97.0575 2.69937 97.1741 2.42481 97.4073 2.19332C97.6405 1.96182 97.9198 1.84608 98.2451 1.84608C98.5759 1.84608 98.8579 1.96182 99.0911 2.19332C99.3243 2.41943 99.4409 2.69668 99.4409 3.02508C99.4409 3.35347 99.3243 3.63342 99.0911 3.86491C98.8634 4.0964 98.5841 4.21215 98.2533 4.21215C97.9225 4.21215 97.6405 4.0964 97.4073 3.86491C97.1741 3.63342 97.0575 3.35078 97.0575 3.017Z" fill="#433E40"/>
<path d="M101.483 6.28751H103.321V7.01429C103.961 6.38442 104.682 6.06948 105.485 6.06948C106.407 6.06948 107.125 6.3575 107.64 6.93354C108.085 7.42344 108.307 8.2229 108.307 9.33191V14.1529H106.469V9.75991C106.469 8.98467 106.361 8.44901 106.144 8.15291C105.932 7.85143 105.547 7.70069 104.989 7.70069C104.381 7.70069 103.95 7.89989 103.695 8.29827C103.446 8.69127 103.321 9.37767 103.321 10.3575V14.1529H101.483V6.28751Z" fill="#433E40"/>
<path d="M50.3826 19.1192H52.221V32.7585H50.3826V31.9348C49.6614 32.6346 48.8452 32.9846 47.9342 32.9846C46.8496 32.9846 45.9494 32.5916 45.2336 31.8056C44.5232 31.0034 44.168 30.0021 44.168 28.8015C44.168 27.6279 44.5232 26.6481 45.2336 25.8621C45.9385 25.0707 46.8252 24.675 47.8935 24.675C48.8208 24.675 49.6505 25.0519 50.3826 25.8056V19.1192ZM46.0389 28.8015C46.0389 29.5552 46.2422 30.169 46.6489 30.6427C47.0665 31.1219 47.5925 31.3614 48.227 31.3614C48.9049 31.3614 49.4526 31.1299 49.8701 30.6669C50.2877 30.1878 50.4965 29.5795 50.4965 28.8419C50.4965 28.1044 50.2877 27.496 49.8701 27.0169C49.4526 26.5485 48.9103 26.3143 48.2433 26.3143C47.6142 26.3143 47.0882 26.5512 46.6652 27.025C46.2477 27.5041 46.0389 28.0963 46.0389 28.8015Z" fill="#433E40"/>
<path d="M60.3716 24.8931H62.21V32.7585H60.3716V31.9348C59.6178 32.6346 58.8071 32.9846 57.9394 32.9846C56.844 32.9846 55.9384 32.5916 55.2226 31.8056C54.5122 31.0034 54.157 30.0021 54.157 28.8015C54.157 27.6225 54.5122 26.64 55.2226 25.854C55.933 25.068 56.8223 24.675 57.8906 24.675C58.8125 24.675 59.6395 25.0519 60.3716 25.8056V24.8931ZM56.0279 28.8015C56.0279 29.5552 56.2312 30.169 56.6379 30.6427C57.0555 31.1219 57.5815 31.3614 58.216 31.3614C58.8939 31.3614 59.4416 31.1299 59.8591 30.6669C60.2767 30.1878 60.4855 29.5795 60.4855 28.8419C60.4855 28.1044 60.2767 27.496 59.8591 27.0169C59.4416 26.5485 58.8993 26.3143 58.2323 26.3143C57.6032 26.3143 57.0772 26.5512 56.6542 27.025C56.2366 27.5041 56.0279 28.0963 56.0279 28.8015Z" fill="#433E40"/>
<path d="M64.5201 24.8931H66.3585V25.6199C66.9984 24.99 67.7196 24.675 68.5222 24.675C69.4441 24.675 70.1626 24.9631 70.6778 25.5391C71.1225 26.029 71.3448 26.8285 71.3448 27.9375V32.7585H69.5065V28.3655C69.5065 27.5902 69.398 27.0546 69.1811 26.7585C68.9696 26.457 68.5846 26.3063 68.026 26.3063C67.4187 26.3063 66.9875 26.5055 66.7327 26.9038C66.4832 27.2968 66.3585 27.9832 66.3585 28.9631V32.7585H64.5201V24.8931Z" fill="#433E40"/>
<path d="M78.2672 26.2336L76.7542 27.033C76.5156 26.5485 76.22 26.3063 75.8675 26.3063C75.6994 26.3063 75.5557 26.3628 75.4364 26.4758C75.3171 26.5835 75.2575 26.7235 75.2575 26.8958C75.2575 27.1972 75.6099 27.496 76.3149 27.7921C77.2856 28.2067 77.9391 28.5889 78.2753 28.9388C78.6115 29.2888 78.7796 29.7598 78.7796 30.352C78.7796 31.1111 78.4976 31.7464 77.9337 32.2578C77.386 32.7423 76.7244 32.9846 75.9489 32.9846C74.6203 32.9846 73.6794 32.3412 73.1263 31.0546L74.6881 30.3359C74.905 30.7127 75.0704 30.9523 75.1843 31.0546C75.4066 31.2591 75.6723 31.3614 75.9814 31.3614C76.5996 31.3614 76.9087 31.0815 76.9087 30.5216C76.9087 30.1986 76.6701 29.8971 76.1929 29.6172C76.0085 29.5256 75.8242 29.4368 75.6398 29.3507C75.4554 29.2645 75.2683 29.1757 75.0785 29.0842C74.5471 28.8258 74.1729 28.5674 73.956 28.309C73.6794 27.9806 73.5411 27.5579 73.5411 27.0411C73.5411 26.3574 73.777 25.7921 74.2488 25.3453C74.7314 24.8985 75.3171 24.675 76.0058 24.675C77.0199 24.675 77.7737 25.1946 78.2672 26.2336Z" fill="#433E40"/>
<path d="M87.402 19.1192V32.7585H85.5718V19.1192H87.402Z" fill="#433E40"/>
<path d="M95.5608 24.8931H97.3992V32.7585H95.5608V31.9348C94.807 32.6346 93.9963 32.9846 93.1286 32.9846C92.0332 32.9846 91.1276 32.5916 90.4118 31.8056C89.7014 31.0034 89.3462 30.0021 89.3462 28.8015C89.3462 27.6225 89.7014 26.64 90.4118 25.854C91.1222 25.068 92.0115 24.675 93.0798 24.675C94.0017 24.675 94.8287 25.0519 95.5608 25.8056V24.8931ZM91.2171 28.8015C91.2171 29.5552 91.4204 30.169 91.8271 30.6427C92.2447 31.1219 92.7707 31.3614 93.4052 31.3614C94.0831 31.3614 94.6308 31.1299 95.0483 30.6669C95.4659 30.1878 95.6747 29.5795 95.6747 28.8419C95.6747 28.1044 95.4659 27.496 95.0483 27.0169C94.6308 26.5485 94.0885 26.3143 93.4215 26.3143C92.7924 26.3143 92.2664 26.5512 91.8434 27.025C91.4258 27.5041 91.2171 28.0963 91.2171 28.8015Z" fill="#433E40"/>
<path d="M106.68 19.1192V25.8056C107.413 25.0519 108.242 24.675 109.17 24.675C110.238 24.675 111.127 25.0707 111.838 25.8621C112.548 26.6481 112.903 27.6279 112.903 28.8015C112.903 30.0128 112.545 31.0142 111.83 31.8056C111.119 32.5916 110.222 32.9846 109.137 32.9846C108.221 32.9846 107.402 32.6346 106.68 31.9348V32.7585H104.85V19.1192H106.68ZM111.032 28.8823C111.032 28.1286 110.826 27.5149 110.414 27.0411C109.997 26.5566 109.473 26.3143 108.844 26.3143C108.172 26.3143 107.624 26.5485 107.201 27.0169C106.783 27.4799 106.575 28.0828 106.575 28.8258C106.575 29.5902 106.781 30.2013 107.193 30.6589C107.605 31.1272 108.147 31.3614 108.82 31.3614C109.454 31.3614 109.98 31.1272 110.398 30.6589C110.821 30.1851 111.032 29.5929 111.032 28.8823Z" fill="#433E40"/>
<path d="M114.465 28.7692C114.465 27.6333 114.874 26.667 115.693 25.8702C116.512 25.0734 117.51 24.675 118.687 24.675C119.869 24.675 120.872 25.0761 121.696 25.8783C122.51 26.6804 122.917 27.6656 122.917 28.8338C122.917 30.0128 122.507 31.0007 121.688 31.7975C120.864 32.5889 119.853 32.9846 118.654 32.9846C117.467 32.9846 116.472 32.5808 115.669 31.7733C114.866 30.9765 114.465 29.9752 114.465 28.7692ZM116.336 28.8015C116.336 29.5875 116.547 30.2093 116.97 30.6669C117.404 31.1299 117.976 31.3614 118.687 31.3614C119.403 31.3614 119.975 31.1326 120.403 30.675C120.832 30.2174 121.046 29.6064 121.046 28.8419C121.046 28.0775 120.832 27.4664 120.403 27.0088C119.969 26.5458 119.397 26.3143 118.687 26.3143C117.987 26.3143 117.421 26.5458 116.987 27.0088C116.553 27.4718 116.336 28.0694 116.336 28.8015Z" fill="#433E40"/>
<path d="M126.691 24.8931V32.7585H124.861V24.8931H126.691ZM123.039 22.7208L125.764 20.1286L128.529 22.7208L127.277 23.6818L125.764 22.1475L124.267 23.6818L123.039 22.7208Z" fill="#433E40"/>
<path d="M130.896 26.5889V32.7585H129.066V26.5889H128.285V24.8931H129.066V22.0102H130.896V24.8931H132.32V26.5889H130.896Z" fill="#433E40"/>
<path d="M140.926 29.2538H135.248C135.297 29.8998 135.509 30.4139 135.883 30.7962C136.257 31.173 136.737 31.3614 137.323 31.3614C137.778 31.3614 138.155 31.2538 138.453 31.0384C138.746 30.8231 139.08 30.4247 139.454 29.8433L140.999 30.6992C140.761 31.103 140.509 31.4503 140.243 31.741C139.977 32.0263 139.692 32.2632 139.389 32.4516C139.085 32.6346 138.757 32.7692 138.404 32.8554C138.052 32.9415 137.67 32.9846 137.257 32.9846C136.075 32.9846 135.126 32.6077 134.41 31.854C133.695 31.0949 133.337 30.0882 133.337 28.8338C133.337 27.5902 133.684 26.5835 134.378 25.8137C135.077 25.0546 136.005 24.675 137.16 24.675C138.326 24.675 139.248 25.0438 139.926 25.7814C140.598 26.5135 140.934 27.5283 140.934 28.8258L140.926 29.2538ZM139.047 27.7679C138.792 26.7989 138.177 26.3143 137.201 26.3143C136.978 26.3143 136.769 26.3493 136.574 26.4193C136.379 26.4839 136.2 26.5808 136.037 26.71C135.88 26.8339 135.745 26.9846 135.631 27.1623C135.517 27.3399 135.43 27.5418 135.37 27.7679H139.047Z" fill="#433E40"/>
</g>
<g id="Group 1000004539">
<path id="Vector" d="M23.8 7.07553C24.1536 8.4267 24.2406 9.80357 24.2884 11.1909C24.3261 12.2903 24.4886 13.3731 25.1744 14.2935C26.1626 15.6204 28.7642 15.511 29.9641 14.0717C29.9694 14.0655 29.9746 14.0584 29.9789 14.0513C30.2403 13.6382 30.4491 13.2465 30.5141 12.7815C30.7392 11.1695 30.3521 9.66936 29.6692 8.23395C28.9094 6.63624 27.7625 5.32315 26.5067 4.09714C24.5751 2.2115 22.2847 0.931718 19.7123 0.155949C19.0342 -0.0487021 18.2987 -0.0396594 17.6454 0.271124C16.5535 0.790367 15.7516 1.638 15.1452 2.67791C14.0437 4.56641 13.7087 6.64291 13.6944 8.77984C13.681 10.784 13.8029 12.7872 13.8521 14.7909C13.9653 19.3879 14.2416 23.9816 14.1527 28.582C14.1312 29.7061 13.9897 30.8326 13.5572 31.8849C13.0034 33.2332 11.9506 33.7991 10.5829 33.0224C9.22483 32.2509 8.40384 31.0287 7.83756 29.6233C6.82924 27.1194 6.55064 24.4728 6.47179 21.8137C6.3982 19.3217 6.36332 16.8269 6.42544 14.3306C6.48995 11.752 6.62519 9.19343 7.2039 6.6648C7.83899 3.89154 9.09724 1.60992 11.7967 0.349177C11.8149 0.340611 11.834 0.332996 11.8531 0.325381C12.0558 0.246376 11.9439 -0.0596485 11.7375 0.0103135C11.6993 0.0231637 11.6615 0.0369657 11.6238 0.0464844C9.87187 0.498144 8.21843 1.18634 6.67967 2.13535C5.03196 3.15194 3.61936 4.42078 2.60101 6.08416C0.946135 8.78984 0.244615 11.7911 0.0687576 14.9022C-0.125259 18.3332 0.0419966 21.749 1.2147 25.0386C1.98742 27.206 3.0894 29.1521 4.86709 30.6789C6.45172 32.0396 8.2815 32.9705 10.192 33.7444C11.6242 34.3246 12.9656 34.1932 14.1976 33.0928C15.8157 31.6474 16.4374 29.7575 16.7518 27.7362C16.9769 26.2884 16.9014 24.8173 16.8737 23.3486C16.8178 20.364 16.6629 17.3833 16.6185 14.3987C16.5741 11.4165 16.295 8.43622 16.5631 5.45308C16.6739 4.22041 16.7509 2.96252 17.3496 1.84789C18.0096 0.619983 19.1684 0.377733 20.3005 1.27915C22.181 2.77643 23.2041 4.79772 23.7995 7.07505L23.8 7.07553Z" fill="#433E40"/>
<path id="Vector_2" d="M29.7117 20.3682C29.6691 20.3268 29.6266 20.2854 29.5841 20.2445C29.5468 20.2088 29.5095 20.1736 29.4718 20.1388C29.3795 20.0527 29.2863 19.9685 29.1917 19.8861C29.1678 19.8652 29.1435 19.8447 29.1191 19.8238C29.0422 19.7576 28.9643 19.6924 28.8854 19.6291C28.8601 19.6082 28.8348 19.5877 28.8089 19.5677C28.764 19.5316 28.7186 19.4959 28.6728 19.4611C28.635 19.4316 28.5968 19.4026 28.5585 19.3745C28.5485 19.3664 28.538 19.3588 28.5275 19.3512C28.4955 19.3269 28.4625 19.3031 28.43 19.2803C28.4094 19.265 28.3889 19.2503 28.3683 19.236C28.332 19.2093 28.2948 19.1836 28.258 19.1579C28.2183 19.1308 28.1791 19.1032 28.1385 19.0775C28.1117 19.0585 28.084 19.0404 28.0563 19.0223C28.0491 19.0175 28.0415 19.0123 28.0338 19.0075C27.1531 18.434 26.1725 17.9971 25.0619 17.7349C23.1538 17.2842 21.7235 17.951 21.066 19.7429C20.5279 21.2106 21.043 22.6056 22.4073 23.3066C22.7485 23.4823 23.1031 23.6322 23.4687 23.7478C23.9337 23.8954 24.2381 24.3418 24.1889 24.8253C24.0837 25.8619 23.8864 26.8852 23.5676 27.8961C22.8207 30.2643 21.5367 32.218 19.3891 33.5463C19.3599 33.5644 19.3294 33.5811 19.2988 33.5992C19.1301 33.701 19.2448 33.9594 19.4345 33.9038C21.2528 33.3707 22.9134 32.564 24.5148 31.5427C25.5513 30.8759 26.4626 30.1039 27.2893 29.251C28.3201 28.1869 29.1793 27.037 29.7623 25.7468C29.7881 25.6901 29.813 25.6335 29.8373 25.5764C29.8388 25.5726 29.8407 25.5692 29.8421 25.5654C29.8651 25.5121 29.8875 25.4579 29.9095 25.4041C29.9329 25.3465 29.9558 25.2884 29.9778 25.2299C30.0003 25.1718 30.0223 25.1128 30.0433 25.0543C30.0643 24.9967 30.0844 24.9386 30.104 24.8806C30.1054 24.8763 30.1069 24.8725 30.1078 24.8687C30.1269 24.8115 30.1456 24.7544 30.1637 24.6973C30.1828 24.6374 30.201 24.5769 30.2187 24.516C30.2359 24.4574 30.2526 24.3984 30.2689 24.3389C30.2693 24.337 30.2698 24.3351 30.2703 24.3332C30.2851 24.2785 30.2994 24.2238 30.3133 24.1681C30.33 24.1 30.3463 24.031 30.362 23.962C30.3692 23.9306 30.3759 23.8997 30.3826 23.8682C30.3864 23.8516 30.3898 23.8349 30.3931 23.8187C30.3984 23.794 30.4036 23.7688 30.4084 23.7436C30.4151 23.7102 30.4218 23.6769 30.428 23.6431C30.4743 23.3985 30.5107 23.1491 30.5374 22.895C30.5408 22.8636 30.5441 22.8326 30.547 22.8017C30.5537 22.7351 30.5594 22.6679 30.5642 22.6008C30.5647 22.5956 30.5651 22.5904 30.5651 22.5851C30.6239 21.7613 30.3061 20.9574 29.7188 20.3759C29.7164 20.3735 29.7136 20.3706 29.7112 20.3682H29.7117Z" fill="#433E40"/>
</g>
</g>
</svg>
