<svg width="16" height="16" viewBox="0 0 16 16" fill="none" xmlns="http://www.w3.org/2000/svg">
<path d="M6.75 14C6.75 14.3978 6.59196 14.7794 6.31066 15.0607C6.02936 15.342 5.64782 15.5 5.25 15.5C4.85217 15.5 4.47064 15.342 4.18934 15.0607C3.90804 14.7794 3.75 14.3978 3.75 14C3.75 13.6022 3.90804 13.2206 4.18934 12.9393C4.47064 12.658 4.85217 12.5 5.25 12.5C5.64782 12.5 6.02936 12.658 6.31066 12.9393C6.59196 13.2206 6.75 13.6022 6.75 14ZM12.75 12.5C12.3522 12.5 11.9706 12.658 11.6893 12.9393C11.408 13.2206 11.25 13.6022 11.25 14C11.25 14.3978 11.408 14.7794 11.6893 15.0607C11.9706 15.342 12.3522 15.5 12.75 15.5C13.1478 15.5 13.5294 15.342 13.8107 15.0607C14.092 14.7794 14.25 14.3978 14.25 14C14.25 13.6022 14.092 13.2206 13.8107 12.9393C13.5294 12.658 13.1478 12.5 12.75 12.5ZM5.4 9.9725C5.3925 10.0025 5.3925 10.0325 5.4 10.0625C5.4 10.1122 5.41975 10.1599 5.45492 10.1951C5.49008 10.2302 5.53777 10.25 5.5875 10.25H14.25V11.75H5.25C4.85217 11.75 4.47064 11.592 4.18934 11.3107C3.90804 11.0294 3.75 10.6478 3.75 10.25C3.75 9.9875 3.8025 9.7325 3.93 9.5L4.95 7.6925L2.25 2H0.75V0.5H3.2025L3.9075 2H15C15.1989 2 15.3897 2.07902 15.5303 2.21967C15.671 2.36032 15.75 2.55109 15.75 2.75C15.75 2.8775 15.7125 3.005 15.66 3.125L12.975 8C12.705 8.465 12.2025 8.75 11.6625 8.75H6.075L5.4 9.9725ZM6.75 6.125H9.75V7.625L12 5.375L9.75 3.125V4.625H6.75V6.125Z" fill="white"/>
</svg>
