<svg width="14" height="14" viewBox="0 0 14 14" fill="none" xmlns="http://www.w3.org/2000/svg">
<g id="refresh-cw 1">
<path id="Vector" d="M13.416 2.3335V5.8335H9.91602" stroke="currentColor" stroke-width="1.16667" stroke-linecap="round" stroke-linejoin="round"/>
<path id="Vector_2" d="M0.583984 11.6665V8.1665H4.08398" stroke="currentColor" stroke-width="1.16667" stroke-linecap="round" stroke-linejoin="round"/>
<path id="Vector_3" d="M2.04815 5.2496C2.344 4.41355 2.84681 3.66608 3.50967 3.07692C4.17253 2.48777 4.97384 2.07613 5.83882 1.88041C6.7038 1.6847 7.60426 1.7113 8.45618 1.95771C9.3081 2.20413 10.0837 2.66235 10.7107 3.2896L13.4173 5.83293M0.583984 8.16626L3.29065 10.7096C3.91759 11.3368 4.6932 11.7951 5.54512 12.0415C6.39704 12.2879 7.2975 12.3145 8.16248 12.1188C9.02746 11.9231 9.82877 11.5114 10.4916 10.9223C11.1545 10.3331 11.6573 9.58564 11.9532 8.7496" stroke="currentColor" stroke-width="1.16667" stroke-linecap="round" stroke-linejoin="round"/>
</g>
</svg>
