<svg width="73" height="72" viewBox="0 0 73 72" fill="none" xmlns="http://www.w3.org/2000/svg">
<path d="M36.5 71.5593C56.6584 71.5593 73 55.6055 73 35.9254C73 16.2453 56.6584 0.291504 36.5 0.291504C16.3416 0.291504 0 16.2453 0 35.9254C0 55.6055 16.3416 71.5593 36.5 71.5593Z" fill="#433E40"/>
<path d="M37.9752 26.8529L52.6662 41.1953C52.8347 41.3597 52.9684 41.555 53.0596 41.7699C53.1508 41.9848 53.1978 42.2152 53.1978 42.4478C53.1978 42.6805 53.1508 42.9108 53.0596 43.1257C52.9684 43.3406 52.8347 43.5359 52.6662 43.7004L50.9522 45.3737C50.6121 45.7051 50.1512 45.8912 49.6707 45.8912C49.1901 45.8912 48.7293 45.7051 48.3892 45.3737L36.6882 34.0089L24.9942 45.3766C24.6541 45.708 24.1932 45.8942 23.7127 45.8942C23.2321 45.8942 22.7713 45.708 22.4312 45.3766L20.7172 43.7004C20.5486 43.5359 20.4149 43.3406 20.3237 43.1257C20.2325 42.9108 20.1855 42.6805 20.1855 42.4478C20.1855 42.2152 20.2325 41.9848 20.3237 41.7699C20.4149 41.555 20.5486 41.3597 20.7172 41.1953L35.4092 26.8529C35.5776 26.6883 35.7776 26.5578 35.9978 26.4688C36.2179 26.3797 36.4539 26.3339 36.6922 26.3339C36.9305 26.3339 37.1664 26.3797 37.3866 26.4688C37.6067 26.5578 37.8067 26.6883 37.9752 26.8529Z" fill="white"/>
</svg>
