<svg width="22" height="23" viewBox="0 0 22 23" fill="none" xmlns="http://www.w3.org/2000/svg">
<g id="shopping-bag">
<path id="Vector" d="M5.5 2.3335L2.75 6.00016V18.8335C2.75 19.3197 2.94315 19.786 3.28697 20.1299C3.63079 20.4737 4.0971 20.6668 4.58333 20.6668H17.4167C17.9029 20.6668 18.3692 20.4737 18.713 20.1299C19.0568 19.786 19.25 19.3197 19.25 18.8335V6.00016L16.5 2.3335H5.5Z" stroke="currentColor" stroke-width="2" stroke-linecap="round" stroke-linejoin="round"/>
<path id="Vector_2" d="M2.75 6H19.25" stroke="currentColor" stroke-width="2" stroke-linecap="round" stroke-linejoin="round"/>
<path id="Vector_3" d="M14.6654 9.6665C14.6654 10.639 14.2791 11.5716 13.5914 12.2592C12.9038 12.9469 11.9712 13.3332 10.9987 13.3332C10.0262 13.3332 9.09361 12.9469 8.40597 12.2592C7.71834 11.5716 7.33203 10.639 7.33203 9.6665" stroke="currentColor" stroke-width="2" stroke-linecap="round" stroke-linejoin="round"/>
</g>
</svg>
