<svg width="29" height="24" viewBox="0 0 29 24" fill="none" xmlns="http://www.w3.org/2000/svg">
<path d="M12.188 23.178C6.16604 23.2756 1.68802 19.9768 0.327019 14.906C-0.724981 10.9706 0.847028 7.55863 3.81103 4.98127C6.00189 2.98742 8.70029 1.60351 11.6251 0.973697C14.55 0.343884 17.5943 0.491174 20.441 1.40028C26.971 3.31279 29.898 8.03895 27.733 14.5536C26.354 18.7115 22.733 21.3767 18.296 22.599C16.9665 23.0658 15.5532 23.2625 14.143 23.177C13.8744 22.9418 13.5263 22.8117 13.1655 22.8117C12.8047 22.8117 12.4566 22.9428 12.188 23.178ZM22.388 7.47951C22.42 7.43753 22.488 7.38188 22.478 7.35748C22.4394 7.27165 22.3925 7.18963 22.338 7.11245C17.558 2.76024 9.17904 4.82601 5.86904 9.20556C4.65504 10.8135 5.03602 11.7439 7.08102 11.7624C9.52602 11.7781 12.057 11.7625 13.83 9.59514C14.3135 9.14748 14.8804 8.79452 15.5 8.55541C17.676 7.35753 20.145 8.13948 22.388 7.48148M5.60003 15.7974C8.58603 19.1274 12.1 19.2905 15.675 18.7711C17.2395 18.5536 18.7345 17.9979 20.051 17.1447C21.3675 16.2914 22.4724 15.1621 23.285 13.839C23.905 12.8861 23.985 12.4078 22.612 12.1452C19.962 11.6375 17.595 11.78 15.566 13.8194C14.2589 15.082 12.4938 15.7893 10.655 15.7876C9.12502 15.8364 7.59204 15.7974 5.60104 15.7974" fill="#232222"/>
<path d="M5.60599 15.7964C7.59599 15.7964 9.12897 15.8355 10.66 15.7867C12.4987 15.7883 14.2638 15.0809 15.571 13.8185C17.6 11.779 19.971 11.6365 22.617 12.1442C23.994 12.4078 23.91 12.8861 23.29 13.838C22.4773 15.1611 21.3725 16.2905 20.0559 17.1437C18.7394 17.997 17.2444 18.5526 15.68 18.7701C12.106 19.2895 8.59098 19.1265 5.60498 15.7964" fill="#B06934"/>
<path d="M22.3941 7.47847C20.1531 8.13843 17.6831 7.35739 15.5061 8.55234C14.8866 8.79226 14.3197 9.14547 13.836 9.59303C12.063 11.7584 9.53605 11.775 7.08705 11.7594C5.04205 11.7467 4.66104 10.8105 5.87504 9.20255C9.18404 4.82398 17.564 2.75912 22.344 7.10939C22.3272 7.17077 22.3229 7.23481 22.3315 7.2978C22.3401 7.3608 22.3614 7.42155 22.3941 7.4765" fill="#B06934"/>
</svg>
