<svg width="18" height="18" viewBox="0 0 18 18" fill="none" xmlns="http://www.w3.org/2000/svg">
<g id="truck">
<path id="Vector" d="M13.5 13.875C13.2016 13.875 12.9155 13.7565 12.7045 13.5455C12.4935 13.3345 12.375 13.0484 12.375 12.75C12.375 12.4516 12.4935 12.1655 12.7045 11.9545C12.9155 11.7435 13.2016 11.625 13.5 11.625C13.7984 11.625 14.0845 11.7435 14.2955 11.9545C14.5065 12.1655 14.625 12.4516 14.625 12.75C14.625 13.0484 14.5065 13.3345 14.2955 13.5455C14.0845 13.7565 13.7984 13.875 13.5 13.875ZM14.625 7.125L16.095 9H12.75V7.125M4.5 13.875C4.20163 13.875 3.91548 13.7565 3.7045 13.5455C3.49353 13.3345 3.375 13.0484 3.375 12.75C3.375 12.4516 3.49353 12.1655 3.7045 11.9545C3.91548 11.7435 4.20163 11.625 4.5 11.625C4.79837 11.625 5.08452 11.7435 5.2955 11.9545C5.50647 12.1655 5.625 12.4516 5.625 12.75C5.625 13.0484 5.50647 13.3345 5.2955 13.5455C5.08452 13.7565 4.79837 13.875 4.5 13.875ZM15 6H12.75V3H2.25C1.4175 3 0.75 3.6675 0.75 4.5V12.75H2.25C2.25 13.3467 2.48705 13.919 2.90901 14.341C3.33097 14.7629 3.90326 15 4.5 15C5.09674 15 5.66903 14.7629 6.09099 14.341C6.51295 13.919 6.75 13.3467 6.75 12.75H11.25C11.25 13.3467 11.4871 13.919 11.909 14.341C12.331 14.7629 12.9033 15 13.5 15C14.0967 15 14.669 14.7629 15.091 14.341C15.5129 13.919 15.75 13.3467 15.75 12.75H17.25V9L15 6Z" fill="white"/>
</g>
</svg>
