<svg width="34" height="20" viewBox="0 0 34 20" fill="none" xmlns="http://www.w3.org/2000/svg">
<path d="M17.9752 0.852926L32.6662 15.1953C32.8347 15.3598 32.9684 15.5551 33.0596 15.77C33.1508 15.9849 33.1978 16.2152 33.1978 16.4479C33.1978 16.6805 33.1508 16.9109 33.0596 17.1258C32.9684 17.3407 32.8347 17.536 32.6662 17.7004L30.9522 19.3738C30.6121 19.7052 30.1512 19.8913 29.6707 19.8913C29.1901 19.8913 28.7293 19.7052 28.3892 19.3738L16.6882 8.00899L4.99416 19.3767C4.65407 19.7081 4.19318 19.8942 3.71266 19.8942C3.23214 19.8942 2.77126 19.7081 2.43116 19.3767L0.717164 17.7004C0.548626 17.536 0.414929 17.3407 0.323713 17.1258C0.232496 16.9109 0.185547 16.6805 0.185547 16.4479C0.185547 16.2152 0.232496 15.9849 0.323713 15.77C0.414929 15.5551 0.548626 15.3598 0.717164 15.1953L15.4092 0.852926C15.5776 0.688387 15.7776 0.557863 15.9978 0.468811C16.2179 0.379759 16.4539 0.333923 16.6922 0.333923C16.9305 0.333923 17.1664 0.379759 17.3866 0.468811C17.6067 0.557863 17.8067 0.688387 17.9752 0.852926Z" fill="white"/>
</svg>
